<svg xmlns="http://www.w3.org/2000/svg" xmlns:xlink="http://www.w3.org/1999/xlink" viewBox="0 0 2134.85 1380.38"><defs><style>.cls-1{fill:url(#linear-gradient);}.cls-2{fill:none;}.cls-3{isolation:isolate;}.cls-4{clip-path:url(#clip-path);}.cls-5{fill:url(#linear-gradient-2);}.cls-6{fill:#beb8f2;}.cls-111,.cls-7,.cls-8,.cls-99{fill:#6165d7;}.cls-7{opacity:0.19;}.cls-109,.cls-35,.cls-37,.cls-43,.cls-48,.cls-7,.cls-76,.cls-8,.cls-85,.cls-87,.cls-99{mix-blend-mode:multiply;}.cls-8{opacity:0.32;}.cls-9{fill:url(#linear-gradient-3);}.cls-10{fill:url(#linear-gradient-4);}.cls-11{fill:url(#linear-gradient-5);}.cls-12{clip-path:url(#clip-path-2);}.cls-13{fill:#fcfdfe;}.cls-14,.cls-76{fill:#d8dee8;}.cls-15{fill:#f4f7fa;}.cls-16,.cls-93{fill:#fff;}.cls-17{fill:#c281e8;}.cls-18{fill:url(#linear-gradient-6);}.cls-19{fill:#f8924e;}.cls-20{fill:#ffc244;}.cls-21{fill:#9c73f4;}.cls-22{fill:url(#linear-gradient-7);}.cls-23{fill:#a67ff7;}.cls-24{fill:url(#linear-gradient-8);}.cls-25{fill:url(#linear-gradient-9);}.cls-26{clip-path:url(#clip-path-3);}.cls-27{fill:url(#linear-gradient-10);}.cls-28{fill:url(#linear-gradient-11);}.cls-29{fill:url(#linear-gradient-12);}.cls-30{clip-path:url(#clip-path-4);}.cls-31{fill:url(#linear-gradient-13);}.cls-32{clip-path:url(#clip-path-5);}.cls-33{fill:url(#linear-gradient-14);}.cls-34{fill:url(#linear-gradient-15);}.cls-35{opacity:0.35;}.cls-36{fill:url(#linear-gradient-16);}.cls-37{opacity:0.13;}.cls-38{fill:url(#linear-gradient-17);}.cls-39{fill:#ffa6a4;}.cls-40{fill:url(#linear-gradient-18);}.cls-41{fill:url(#linear-gradient-19);}.cls-42{fill:url(#linear-gradient-20);}.cls-109,.cls-43{opacity:0.24;}.cls-44{fill:#552d63;}.cls-45{fill:url(#linear-gradient-21);}.cls-46{fill:url(#linear-gradient-22);}.cls-47{fill:url(#linear-gradient-23);}.cls-48{opacity:0.2;}.cls-49{fill:url(#linear-gradient-24);}.cls-50{fill:url(#linear-gradient-25);}.cls-51{fill:url(#linear-gradient-26);}.cls-52{fill:#9f73f8;}.cls-53{fill:#ae87f9;}.cls-54{fill:url(#linear-gradient-27);}.cls-55{fill:url(#linear-gradient-28);}.cls-56{fill:url(#linear-gradient-29);}.cls-57{fill:url(#linear-gradient-30);}.cls-58{fill:url(#linear-gradient-31);}.cls-59{fill:#26264f;}.cls-60{fill:#444b8c;}.cls-61{fill:url(#linear-gradient-32);}.cls-62{fill:#1f1f44;}.cls-63{fill:url(#linear-gradient-33);}.cls-64{fill:url(#linear-gradient-34);}.cls-65{fill:url(#linear-gradient-35);}.cls-66{fill:url(#linear-gradient-36);}.cls-67{fill:url(#linear-gradient-37);}.cls-68{fill:url(#linear-gradient-38);}.cls-69{clip-path:url(#clip-path-6);}.cls-70{fill:url(#linear-gradient-39);}.cls-71{clip-path:url(#clip-path-7);}.cls-72{fill:#5a2f71;}.cls-73{fill:url(#linear-gradient-40);}.cls-74{fill:url(#linear-gradient-41);}.cls-75{clip-path:url(#clip-path-8);}.cls-76{opacity:0.47;}.cls-77{fill:url(#linear-gradient-42);}.cls-78{fill:url(#linear-gradient-43);}.cls-79{fill:url(#linear-gradient-44);}.cls-80{fill:url(#linear-gradient-45);}.cls-81{fill:url(#linear-gradient-46);}.cls-82{fill:url(#linear-gradient-47);}.cls-83{fill:url(#linear-gradient-48);}.cls-84{fill:url(#linear-gradient-49);}.cls-85,.cls-87{opacity:0.25;}.cls-85{fill:url(#linear-gradient-50);}.cls-86{fill:url(#linear-gradient-51);}.cls-87{fill:url(#linear-gradient-52);}.cls-88{fill:url(#linear-gradient-53);}.cls-89{fill:url(#linear-gradient-54);}.cls-90{fill:url(#linear-gradient-55);}.cls-91{fill:url(#linear-gradient-56);}.cls-92{mask:url(#mask);}.cls-93{opacity:0.82;}.cls-94{fill:#6567d9;}.cls-95{fill:url(#linear-gradient-57);}.cls-96{fill:url(#linear-gradient-58);}.cls-97{fill:#726bdf;}.cls-98{fill:url(#linear-gradient-59);}.cls-99{opacity:0.3;}.cls-100{fill:url(#linear-gradient-60);}.cls-101{fill:url(#linear-gradient-61);}.cls-102{fill:url(#linear-gradient-62);}.cls-103{fill:url(#linear-gradient-63);}.cls-104{fill:url(#linear-gradient-64);}.cls-105{fill:url(#linear-gradient-65);}.cls-106{fill:url(#linear-gradient-66);}.cls-107{fill:url(#linear-gradient-67);}.cls-108{fill:url(#linear-gradient-68);}.cls-109{fill:#f8944e;}.cls-110{fill:url(#linear-gradient-69);}.cls-112{fill:url(#linear-gradient-70);}.cls-113{fill:url(#linear-gradient-71);}.cls-114{fill:#4c53a5;}.cls-115{fill:url(#linear-gradient-72);}.cls-116{fill:url(#linear-gradient-73);}.cls-117{fill:url(#linear-gradient-74);}.cls-118{fill:url(#linear-gradient-75);}.cls-119{fill:url(#linear-gradient-76);}.cls-120{fill:url(#linear-gradient-77);}</style><linearGradient id="linear-gradient" x1="707.38" y1="1088.16" x2="707.38" y2="690.4" gradientUnits="userSpaceOnUse"><stop offset="0.3"/><stop offset="0.36" stop-color="#070707"/><stop offset="0.45" stop-color="#1b1b1b"/><stop offset="0.56" stop-color="#3b3b3b"/><stop offset="0.68" stop-color="#686868"/><stop offset="0.81" stop-color="#a2a2a2"/><stop offset="0.95" stop-color="#e7e7e7"/><stop offset="1" stop-color="#fff"/></linearGradient><clipPath id="clip-path" transform="translate(17.13)"><path class="cls-2" d="M1673.57,734.25q-47.73-1.69-95.57-5.58c-.46.52-18.26-66.4,10.12-105.67,56.26-76.22,6.33-133.5-10-168.91-25.4-49.67-22.3-113.8,36.11-108.32,56.76,4,52.52-111.47,33.14-198.64-12.95-42,21.8-98.64,60.92-115,39.82-17.77,84,4.68,106.11,88.88,30.09,97-35.63,164.78-56.91,217.44-21,51.7,44.73,84.38.17,133.06-37.26,43-86.51,76.4-62,122.53C1720.55,639.53,1720.16,679.05,1673.57,734.25Z"/></clipPath><linearGradient id="linear-gradient-2" x1="471.83" y1="-216.55" x2="245.65" y2="426.26" gradientTransform="matrix(-0.92, -0.4, -0.4, 0.92, 2056.12, 432.88)" gradientUnits="userSpaceOnUse"><stop offset="0" stop-color="#aa80f9"/><stop offset="1" stop-color="#6165d7"/></linearGradient><linearGradient id="linear-gradient-3" x1="1712.68" y1="723.86" x2="1857.43" y2="772.52" gradientUnits="userSpaceOnUse"><stop offset="0" stop-color="#ab316d"/><stop offset="1" stop-color="#792d3d"/></linearGradient><linearGradient id="linear-gradient-4" x1="1715.09" y1="658.57" x2="1828.67" y2="658.57" gradientUnits="userSpaceOnUse"><stop offset="0" stop-color="#ffc444"/><stop offset="1" stop-color="#f36f56"/></linearGradient><linearGradient id="linear-gradient-5" x1="1661.78" y1="426.53" x2="1938.34" y2="426.53" gradientUnits="userSpaceOnUse"><stop offset="0" stop-color="#e38ddd"/><stop offset="1" stop-color="#9571f6"/></linearGradient><clipPath id="clip-path-2" transform="translate(17.13)"><path class="cls-2" d="M1814.5,660.56,1710.67,695c-10.92-12.7-27.63-37.25-8.13-51.14,27.12-19.3,9.79-72.66-4.89-88.63-18.15-19.76-59.49-66.66-18-97.16,34.51-25.4,62-34.74,47.74-85.46s2.37-91,48.54-103.44c48.59-13.06,66-89.58,112.17-81.67,80.39,13.78,56.27,144.44-15.42,204.31s-14.25,73.5,1.85,113.49c22,54.6-57.29,68.31-69.72,96.93C1795,624.65,1806,647.32,1814.5,660.56Z"/></clipPath><linearGradient id="linear-gradient-6" x1="932.97" y1="331.71" x2="1055.36" y2="331.71" gradientUnits="userSpaceOnUse"><stop offset="0" stop-color="#ff9085"/><stop offset="1" stop-color="#fb6fbb"/></linearGradient><linearGradient id="linear-gradient-7" x1="1339.95" y1="337.16" x2="1583.54" y2="337.16" xlink:href="#linear-gradient-6"/><linearGradient id="linear-gradient-8" x1="497.8" y1="759.9" x2="601.28" y2="759.9" xlink:href="#linear-gradient-6"/><linearGradient id="linear-gradient-9" x1="487.26" y1="449.6" x2="545.32" y2="449.6" xlink:href="#linear-gradient-6"/><clipPath id="clip-path-3" transform="translate(17.13)"><path class="cls-2" d="M656.89,333.85q1,31,2.06,62l156.09,1q-1.29-39.4-2.58-78.85c-41.92-20-65.11-18.13-78.59-12.55-15.16,6.28-23.63,19.61-49.06,25.72A103.2,103.2,0,0,1,656.89,333.85Z"/></clipPath><linearGradient id="linear-gradient-10" x1="655" y1="314.38" x2="792.83" y2="436.63" xlink:href="#linear-gradient-6"/><linearGradient id="linear-gradient-11" x1="686.92" y1="280.93" x2="823.47" y2="402.05" xlink:href="#linear-gradient-6"/><linearGradient id="linear-gradient-12" x1="707.58" y1="259.9" x2="843.22" y2="380.21" xlink:href="#linear-gradient-6"/><clipPath id="clip-path-4" transform="translate(17.13)"><path class="cls-2" d="M1323.65,641.62c14.58-10.26,26.43-12.29,34.8-12.09,10.59.24,14.1,4,25.51,2.58,11.63-1.46,12.4-5.94,25.38-8a69.72,69.72,0,0,1,25.16.88c15,3.28,15.74,8.74,24.91,8.37,8.46-.33,8.94-5,25.47-12.39,7.79-3.48,15.06-6.73,24.79-7.58,10.6-.93,11.45,2.09,24.94,1.91a102.21,102.21,0,0,0,24.31-3.48c14.25-3.55,16-6.73,25.64-8.18,5.72-.86,14.44-1.14,25.81,2.57q1.1,36.44,2.18,72.87l-287.17,7.51Q1324.53,664.1,1323.65,641.62Z"/></clipPath><linearGradient id="linear-gradient-13" x1="931.4" y1="615.87" x2="1221.71" y2="615.87" xlink:href="#linear-gradient-6"/><clipPath id="clip-path-5" transform="translate(17.13)"><path class="cls-2" d="M272.21,970.1H374.54s19.26-52.49-5.82-89.54c-51.16-75.58,18.61-115.11,45.35-136,40.33-31.57,62.11-77,2.81-96.74s.29-111.67,72.77-153.26c70.93-40.7,39.52-190.27-122.09-116.28-96.51,44.18-81.4,146.51-86.05,200s-84.2,57.91-57,123.25C247.79,757.31,292,798,258.26,836.38S221.05,917.77,272.21,970.1Z"/></clipPath><linearGradient id="linear-gradient-14" x1="453.29" y1="374.54" x2="249.59" y2="953.5" gradientTransform="matrix(1, 0, 0, 1, 0, 0)" xlink:href="#linear-gradient-2"/><linearGradient id="linear-gradient-15" x1="432.81" y1="842.95" x2="840.77" y2="1714.44" xlink:href="#linear-gradient-6"/><linearGradient id="linear-gradient-16" x1="479.64" y1="821.03" x2="887.6" y2="1692.51" xlink:href="#linear-gradient-6"/><linearGradient id="linear-gradient-17" x1="432.81" y1="842.95" x2="840.77" y2="1714.44" xlink:href="#linear-gradient-6"/><linearGradient id="linear-gradient-18" x1="-1961.47" y1="1377.63" x2="-1876.74" y2="1377.63" gradientTransform="matrix(0.66, -0.75, 0.75, 0.66, 1194.02, -1160.71)" gradientUnits="userSpaceOnUse"><stop offset="0" stop-color="#40447e"/><stop offset="1" stop-color="#3c3b6b"/></linearGradient><linearGradient id="linear-gradient-19" x1="1056.52" y1="889.35" x2="1738.39" y2="1596.96" gradientTransform="translate(-167.4 28.42) rotate(5.62)" xlink:href="#linear-gradient-4"/><linearGradient id="linear-gradient-20" x1="381.45" y1="1121.4" x2="800.4" y2="1343.93" gradientTransform="translate(106.68 -45) rotate(-3.5)" gradientUnits="userSpaceOnUse"><stop offset="0" stop-color="#311944"/><stop offset="1" stop-color="#6b3976"/></linearGradient><linearGradient id="linear-gradient-21" x1="222.81" y1="1221.09" x2="602.7" y2="1150.51" gradientTransform="translate(106.68 -45) rotate(-3.5)" gradientUnits="userSpaceOnUse"><stop offset="0" stop-color="#311944"/><stop offset="1" stop-color="#893976"/></linearGradient><linearGradient id="linear-gradient-22" x1="535.37" y1="1288.74" x2="437.57" y2="1057.16" gradientTransform="translate(106.68 -45) rotate(-3.5)" xlink:href="#linear-gradient-2"/><linearGradient id="linear-gradient-23" x1="381.89" y1="1181.59" x2="340.37" y2="1019.21" gradientTransform="translate(106.68 -45) rotate(-3.5)" xlink:href="#linear-gradient-2"/><linearGradient id="linear-gradient-24" x1="381.89" y1="1181.59" x2="340.37" y2="1019.21" gradientTransform="translate(106.68 -45) rotate(-3.5)" xlink:href="#linear-gradient-2"/><linearGradient id="linear-gradient-25" x1="370.09" y1="1129.06" x2="569.51" y2="1076.17" gradientTransform="translate(106.68 -45) rotate(-3.5)" xlink:href="#linear-gradient-4"/><linearGradient id="linear-gradient-26" x1="343.29" y1="1202.18" x2="299.61" y2="1031.33" gradientTransform="translate(106.68 -45) rotate(-3.5)" gradientUnits="userSpaceOnUse"><stop offset="0.28" stop-color="#aa80f9"/><stop offset="1" stop-color="#6165d7"/></linearGradient><linearGradient id="linear-gradient-27" x1="330.6" y1="1006.92" x2="334.53" y2="902.21" gradientTransform="translate(106.68 -45) rotate(-3.5)" xlink:href="#linear-gradient-4"/><linearGradient id="linear-gradient-28" x1="308.76" y1="971.29" x2="348.18" y2="859.52" xlink:href="#linear-gradient-20"/><linearGradient id="linear-gradient-29" x1="336.12" y1="904.89" x2="333.61" y2="1106.46" gradientTransform="translate(106.68 -45) rotate(-3.5)" xlink:href="#linear-gradient-4"/><linearGradient id="linear-gradient-30" x1="294.1" y1="968.76" x2="342.54" y2="860.06" xlink:href="#linear-gradient-20"/><linearGradient id="linear-gradient-31" x1="298.82" y1="967.57" x2="337.97" y2="856.58" xlink:href="#linear-gradient-20"/><linearGradient id="linear-gradient-32" x1="430.62" y1="1115.27" x2="566.92" y2="1115.27" gradientTransform="translate(106.68 -45) rotate(-3.5)" xlink:href="#linear-gradient-18"/><linearGradient id="linear-gradient-33" x1="-401.64" y1="1426.41" x2="-333.94" y2="1426.41" gradientTransform="translate(653.05 -390.86) rotate(-22.13)" xlink:href="#linear-gradient-18"/><linearGradient id="linear-gradient-34" x1="630.48" y1="1136.38" x2="1312.38" y2="1844.02" gradientTransform="translate(106.68 -45) rotate(-3.5)" xlink:href="#linear-gradient-4"/><linearGradient id="linear-gradient-35" x1="347.51" y1="1184.77" x2="659.82" y2="1154.33" xlink:href="#linear-gradient-20"/><linearGradient id="linear-gradient-36" x1="227.43" y1="1245.95" x2="607.33" y2="1175.37" xlink:href="#linear-gradient-21"/><linearGradient id="linear-gradient-37" x1="362.93" y1="1196.44" x2="592.77" y2="1147.32" xlink:href="#linear-gradient-20"/><linearGradient id="linear-gradient-38" x1="321.12" y1="1045.07" x2="-90.58" y2="333.17" xlink:href="#linear-gradient-4"/><clipPath id="clip-path-6" transform="translate(17.13)"><path class="cls-2" d="M248.81,1275.45H353.25s41.65-88.27,5.6-114.38-11.19-99.72-2.49-140.5C380,909.92,257.8,904.1,276.79,759.47c5-38.46,27.54-110.13-.83-145.05-32.33-39.79-63.82-9.12-83.72-41.44C161.15,522.45,103.07,498.12,61,540.31,19.38,582,50.25,679.88,147.5,768.17c62.6,71.24,61.25,89.91,49.72,134.29-8.09,31.08-49.11,109.41-10.57,148s66.62,78.4,45.38,111.9C199.7,1213.29,248.81,1275.45,248.81,1275.45Z"/></clipPath><linearGradient id="linear-gradient-39" x1="87.56" y1="908.6" x2="316.43" y2="1285.37" xlink:href="#linear-gradient-5"/><clipPath id="clip-path-7" transform="translate(17.13)"><path class="cls-2" d="M228.58,1276.6H328.67c5.84-14.16,13.28-40.3-7.66-46.75-29.11-8.95-29.42-60.29-21.28-78.38,10.08-22.4,32.48-75-12.31-89.58-37.29-12.12-63.83-12.32-66.07-60.47S193.08,923,149.4,925.55c-45.95,2.66-83.14-58.78-120.93-38.63-65.85,35.12-7.28,141.65,72.22,173s33.54,59.73,31.08,99.1c-3.36,53.75,69.42,42.83,88.46,64.1C235.15,1239.81,232.18,1262.64,228.58,1276.6Z"/></clipPath><linearGradient id="linear-gradient-40" x1="913.93" y1="400.04" x2="1435.19" y2="400.04" gradientUnits="userSpaceOnUse"><stop offset="0" stop-color="#e3e7ef"/><stop offset="1" stop-color="#fafbfd"/></linearGradient><linearGradient id="linear-gradient-41" x1="1704.34" y1="312.13" x2="1828.08" y2="312.13" gradientTransform="matrix(1, 0.06, -0.26, 1.01, -521.78, -58.65)" xlink:href="#linear-gradient-6"/><clipPath id="clip-path-8" transform="translate(17.13)"><path class="cls-2" d="M1359.81,541.52,1031.43,524.3c-9.13-.48-14.93-7.86-12.93-16.48l54.64-235.54c2-8.48,10.83-14.59,19.78-13.66l321.87,33.65c7.84.82,12.76,7.89,11,15.81l-48.35,219.65C1375.69,535.77,1367.8,541.94,1359.81,541.52Z"/></clipPath><linearGradient id="linear-gradient-42" x1="1046.93" y1="378.11" x2="1024.36" y2="402.5" xlink:href="#linear-gradient-4"/><linearGradient id="linear-gradient-43" x1="1396.67" y1="424.7" x2="1362.64" y2="461.46" xlink:href="#linear-gradient-4"/><linearGradient id="linear-gradient-44" x1="1260.51" y1="339.56" x2="1407.91" y2="573.83" xlink:href="#linear-gradient-6"/><linearGradient id="linear-gradient-45" x1="1317.09" y1="943.71" x2="1317.09" y2="906.32" xlink:href="#linear-gradient-4"/><linearGradient id="linear-gradient-46" x1="1203.11" y1="954.37" x2="1203.11" y2="909.3" xlink:href="#linear-gradient-4"/><linearGradient id="linear-gradient-47" x1="316.84" y1="225.88" x2="494.99" y2="509.03" gradientTransform="translate(732.38 310.24) rotate(-19.17)" xlink:href="#linear-gradient-6"/><linearGradient id="linear-gradient-48" x1="1177.89" y1="777.33" x2="1325.34" y2="777.33" gradientTransform="matrix(1, 0, 0, 1, 0, 0)" xlink:href="#linear-gradient-21"/><linearGradient id="linear-gradient-49" x1="1173.2" y1="667.41" x2="1279.44" y2="845.84" gradientTransform="matrix(1, 0, 0, 1, 0, 0)" xlink:href="#linear-gradient-21"/><linearGradient id="linear-gradient-50" x1="1215.03" y1="642.51" x2="1321.26" y2="820.94" gradientTransform="matrix(1, 0, 0, 1, 0, 0)" xlink:href="#linear-gradient-21"/><linearGradient id="linear-gradient-51" x1="1130.97" y1="388.63" x2="1305.7" y2="666.35" xlink:href="#linear-gradient-6"/><linearGradient id="linear-gradient-52" x1="1062.27" y1="371.84" x2="1264.95" y2="694" xlink:href="#linear-gradient-6"/><linearGradient id="linear-gradient-53" x1="1279.92" y1="423.78" x2="1237.43" y2="492.5" xlink:href="#linear-gradient-4"/><linearGradient id="linear-gradient-54" x1="1252.89" y1="425.65" x2="1316.58" y2="425.65" gradientTransform="matrix(1, 0, 0, 1, 0, 0)" xlink:href="#linear-gradient-20"/><linearGradient id="linear-gradient-55" x1="683.73" y1="336.39" x2="642.62" y2="402.9" gradientTransform="translate(520.89 249.03) rotate(-13.66)" xlink:href="#linear-gradient-4"/><linearGradient id="linear-gradient-56" x1="1235.33" y1="433.6" x2="1271.99" y2="491.87" xlink:href="#linear-gradient-5"/><mask id="mask" x="402.86" y="690.4" width="643.29" height="397.77" maskUnits="userSpaceOnUse"><g transform="translate(17.13)"><polygon class="cls-1" points="625.54 690.4 385.74 1088.16 1029.02 1088.16 800.66 698.62 625.54 690.4"/></g></mask><linearGradient id="linear-gradient-57" x1="631.58" y1="618.76" x2="770.25" y2="734.55" xlink:href="#linear-gradient-5"/><linearGradient id="linear-gradient-58" x1="637.34" y1="632.37" x2="776" y2="748.17" xlink:href="#linear-gradient-5"/><linearGradient id="linear-gradient-59" x1="672.45" y1="635.52" x2="748.1" y2="635.52" gradientTransform="matrix(1, 0, 0, 1, 0, 0)" xlink:href="#linear-gradient-2"/><linearGradient id="linear-gradient-60" x1="1934.53" y1="950.32" x2="1959.87" y2="950.32" xlink:href="#linear-gradient-4"/><linearGradient id="linear-gradient-61" x1="1648.01" y1="1127.23" x2="1672.39" y2="1051.68" xlink:href="#linear-gradient-4"/><linearGradient id="linear-gradient-62" x1="1589.7" y1="810.28" x2="1666.16" y2="810.28" xlink:href="#linear-gradient-4"/><linearGradient id="linear-gradient-63" x1="1667.17" y1="602.36" x2="1760.55" y2="602.36" gradientUnits="userSpaceOnUse"><stop offset="0" stop-color="#6e1f3f"/><stop offset="1" stop-color="#792d3d"/></linearGradient><linearGradient id="linear-gradient-64" x1="1644.81" y1="940.84" x2="1794.43" y2="940.84" gradientTransform="matrix(1, 0, 0, 1, 0, 0)" xlink:href="#linear-gradient-21"/><linearGradient id="linear-gradient-65" x1="1718.54" y1="879.43" x2="1834.05" y2="1330.14" gradientTransform="matrix(1, 0, 0, 1, 0, 0)" xlink:href="#linear-gradient-21"/><linearGradient id="linear-gradient-66" x1="1446.2" y1="1113.15" x2="1631.63" y2="1113.15" gradientTransform="translate(197.61 -36.57) rotate(-6.32)" xlink:href="#linear-gradient-21"/><linearGradient id="linear-gradient-67" x1="1382.17" y1="889.48" x2="1449.23" y2="926.15" gradientTransform="translate(165.98 -25.58) rotate(-5.2)" xlink:href="#linear-gradient-4"/><linearGradient id="linear-gradient-68" x1="1732.2" y1="737.54" x2="2023.1" y2="921.87" xlink:href="#linear-gradient-4"/><linearGradient id="linear-gradient-69" x1="1774.81" y1="835.45" x2="1796.31" y2="860.04" xlink:href="#linear-gradient-4"/><linearGradient id="linear-gradient-70" x1="1685.92" y1="760.26" x2="1917.41" y2="760.26" gradientTransform="matrix(1, 0, 0, 1, 0, 0)" xlink:href="#linear-gradient-2"/><linearGradient id="linear-gradient-71" x1="1724.8" y1="777.11" x2="1802.06" y2="777.11" xlink:href="#linear-gradient-6"/><linearGradient id="linear-gradient-72" x1="1762.55" y1="699.6" x2="1863.9" y2="815.52" xlink:href="#linear-gradient-4"/><linearGradient id="linear-gradient-73" x1="-1372.13" y1="1073.5" x2="-1367.66" y2="954.41" gradientTransform="matrix(-0.97, 0.23, 0.23, 0.97, 149.08, -56.63)" xlink:href="#linear-gradient-4"/><linearGradient id="linear-gradient-74" x1="1677.69" y1="537.72" x2="1859.95" y2="642.07" xlink:href="#linear-gradient-3"/><linearGradient id="linear-gradient-75" x1="1748.98" y1="605.66" x2="1951.55" y2="719.8" gradientTransform="matrix(1, 0.03, -0.03, 0.94, -66.11, -95.1)" xlink:href="#linear-gradient-3"/><linearGradient id="linear-gradient-76" x1="-1688.53" y1="840.2" x2="-1690.8" y2="1023.12" gradientTransform="matrix(-0.99, 0.14, 0.15, 1.03, -101.84, -64.38)" xlink:href="#linear-gradient-4"/><linearGradient id="linear-gradient-77" x1="1747.08" y1="609.03" x2="1949.65" y2="723.18" gradientTransform="matrix(1, 0.03, -0.03, 0.94, -66.11, -95.1)" xlink:href="#linear-gradient-3"/></defs><g class="cls-3"><g id="图层_2" data-name="图层 2"><g id="Illustration"><g class="cls-4"><path class="cls-5" d="M1673.57,734.25q-47.73-1.69-95.57-5.58c-.46.52-18.26-66.4,10.12-105.67,56.26-76.22,6.33-133.5-10-168.91-25.2-49.65-21.17-106.89,31.47-113.56,58.25-8.54,58.14-106.52,37.78-193.4-12.95-42,21.8-98.64,60.92-115,39.82-17.77,84,4.68,106.11,88.88,30.09,97-35.63,164.78-56.91,217.44-21,51.7,44.73,84.38.17,133.06-37.26,43-86.51,76.4-62,122.53C1720.55,639.53,1720.16,679.05,1673.57,734.25Z" transform="translate(17.13)"/><path class="cls-6" d="M1630.4,743.11c-.35-2.77,15-151.41,50.16-292.31,4.62-23.34,9.84-46.95,14.89-69.79,28.11-127.15,54.66-247.25-2-371.23l2-.93c57,124.66,30.36,245.11,2.16,372.64-5,22.83-10.26,46.43-14.89,69.79-36,144.47-50.11,290.74-50.11,291.65Z" transform="translate(17.13)"/><path class="cls-6" d="M1721.13,263.36l-1.82-1.3c30.6-42.63,66.6-102.39,85.94-134.5,15.71-26.08,15.75-26.06,16.87-26l0,1.12.65.88c-.94.92-7.39,11.63-15.55,25.17C1787.81,160.85,1751.78,220.66,1721.13,263.36Z" transform="translate(17.13)"/><path class="cls-6" d="M1724.94,208.86c-24-86.4-82.93-108.78-83.48-108.83l.08-.89-.89-1.06c.54-.46,1.23-.29,2,0,12.42,3.84,63.16,33.8,84.42,110.23Z" transform="translate(17.13)"/><path class="cls-6" d="M1662.16,545.33l-2.23,0c.73-89.57-68.45-165.41-98.23-193.86a32.53,32.53,0,0,1-2.34-2.32l1.8-1.34c.15.19,1,1,2.08,2C1593.23,378.48,1662.91,454.89,1662.16,545.33Z" transform="translate(17.13)"/><path class="cls-6" d="M1671.4,500.43l-2-1c30.79-64.74,109.38-77.92,110.69-77.92h0l-.17,1.11-1.08.29,1.08-.29.06,1.11C1779.22,423.84,1701.68,436.77,1671.4,500.43Z" transform="translate(17.13)"/><path class="cls-6" d="M1633,719.13c-1.32-18-11.13-47.86-50.31-87.91-2.28-2.32-2.28-2.32-2.26-2.89l1.12,0,.94-.58c.14.18.91,1,1.8,1.87,39.65,40.53,49.59,70.93,51,89.3Z" transform="translate(17.13)"/><path class="cls-6" d="M1639.45,684.29l-2.2-.38c5.75-33.12,47.88-61.53,72.49-75.51l1.45-.84,1.24,1.86c-.2.13-.74.44-1.59.92C1686.58,624.13,1645,652.07,1639.45,684.29Z" transform="translate(17.13)"/></g><path class="cls-7" d="M366.58,1024.62c-.14-4.84-108.74-162.91,33.1-173C648,833.84,772.1,825,886.83,806.19c344.69-56.56,657.85-7.08,952.19-.65,55.41,1.21,174.92-8.67,238,66.48,33.9,40.36,48.27,100.34,36.79,152.83-10.64,48.66-43.42,90.61-295,224.84-133.47,71.22-197,110.69-292.71,124.74-72.43,10.62-112.75,2.21-132.22-3-90.2-24.3-137.56-89.59-175.33-130C1068,1080.53,800.06,1028,636.76,1033.2,505,1037.4,368.76,1103.39,366.58,1024.62Z" transform="translate(17.13)"/><path class="cls-8" d="M1647.65,767c63.74,23,133.16,53.74,129.95,80.44-3.51,29.2-90.71,27.78-226.9,63.95-216.92,57.61-227.15,122.68-336.23,113.45-125.57-10.63-123.25-97.81-272.28-121.7-56.05-9-136.38,3-297,26.81-108.29,16.09-192.94,34.38-243.4-14.44-2.51-2.42-27.87-27-26.46-44.07C379.57,819.71,634.19,770.37,1647.65,767Z" transform="translate(17.13)"/><path class="cls-9" d="M1793.28,815.65c-.58,5-3,9.05-6.23,10.32-8,3.15-18.39,4.34-30.52,4.36-12.31,0-22.82-1.24-30.9-4.44-3.12-1.23-5.5-5.07-6.17-9.9L1698,659.28h113.38Z" transform="translate(17.13)"/><ellipse class="cls-10" cx="1771.88" cy="658.57" rx="56.79" ry="9.13"/><path class="cls-11" d="M1700.7,656.44c3,1.83,9.54,8,18.25,8.66,57.93,4.57,82.27-7.38,84.38-9.12.36-.3-1.8-25-1.45-25.33a48.29,48.29,0,0,1,2.9-28.43c12.43-28.62,91.69-42.33,69.72-96.93-16.1-40-73.54-53.62-1.85-113.49s95.81-190.53,15.42-204.31c-46.14-7.91-63.58,68.61-112.17,81.67-46.17,12.41-62.78,52.72-48.54,103.44s-13.23,60.06-47.74,85.46c-41.46,30.5-.12,77.4,18,97.16C1712.28,571.14,1727.44,637,1700.7,656.44Z" transform="translate(17.13)"/><g class="cls-12"><path class="cls-13" d="M1758,660.72c-21.73-171.89,40.06-353.48,161.27-473.91l1.45,1.46c-120.76,120-182.33,300.92-160.67,472.19Z" transform="translate(17.13)"/><path class="cls-13" d="M1754.28,566.39c-21.75-64.64-94-96.37-94.72-96.68l.81-1.89c.74.31,73.82,32.41,95.86,97.91Z" transform="translate(17.13)"/><path class="cls-13" d="M1756.91,628.67l-2-.35c11.68-68,127.77-116.09,128.94-116.57l.78,1.91C1883.44,514.14,1768.4,561.83,1756.91,628.67Z" transform="translate(17.13)"/><path class="cls-13" d="M1789,399l-2.06-.18c4.65-54.63-51.14-117.52-51.7-118.15l1.53-1.38C1737.31,279.93,1793.69,343.47,1789,399Z" transform="translate(17.13)"/><path class="cls-13" d="M1835.17,299l-1.59-1.32c39.94-47.89,123.69-57,124.53-57.12l.22,2.05C1957.49,242.7,1874.56,251.76,1835.17,299Z" transform="translate(17.13)"/></g><path class="cls-14" d="M1232.86,504.69l-327.07,1.66c-8.84,0-16.23-6.83-16.51-15.35l-7.6-234.88c-.28-8.53,6.68-15.27,15.53-15.06l327.67,7.85a15.88,15.88,0,0,1,15.32,15.2l7,225.69A14.36,14.36,0,0,1,1232.86,504.69Z" transform="translate(17.13)"/><path class="cls-15" d="M1238.7,502.8l-327.07,1.65c-8.83.05-16.23-6.82-16.5-15.34l-7.61-234.88c-.27-8.53,6.69-15.27,15.54-15.06L1230.72,247a15.87,15.87,0,0,1,15.32,15.2l7,225.69A14.37,14.37,0,0,1,1238.7,502.8Z" transform="translate(17.13)"/><polygon class="cls-16" points="1270.39 417.43 909.82 415.76 910.04 422.56 1270.6 423.97 1270.39 417.43"/><polygon class="cls-16" points="1121.13 242.33 1126.8 421.51 1133.53 421.54 1127.88 242.5 1121.13 242.33"/><path class="cls-17" d="M1065.66,456.8l-127.56,0a1.1,1.1,0,0,1-1.11-1l-.37-11.47a1,1,0,0,1,1-1l127.57.21a1.09,1.09,0,0,1,1.09,1l.35,11.3A1,1,0,0,1,1065.66,456.8Z" transform="translate(17.13)"/><path class="cls-14" d="M1100.47,482.11l-161.54.43a1.09,1.09,0,0,1-1.11-1L937.45,470a1,1,0,0,1,1-1.05l161.56-.19a1.08,1.08,0,0,1,1.07,1l.36,11.26A1,1,0,0,1,1100.47,482.11Z" transform="translate(17.13)"/><polygon class="cls-14" points="1245.92 306.65 1148.22 304.97 1147.02 266.77 1244.74 268.87 1245.92 306.65"/><polygon class="cls-14" points="1248.76 397.55 1151.12 396.88 1148.73 321.23 1246.42 322.73 1248.76 397.55"/><path class="cls-16" d="M996.37,304.66c15.31.26,28.11,12.58,28.59,27.46a25.57,25.57,0,0,1-2.38,11.62l32.78,15.15a58.63,58.63,0,0,0,5.21-26.27c-1.08-34-30.28-62.25-65.32-63H995l1.12,35Z" transform="translate(17.13)"/><path class="cls-18" d="M1022.58,343.74A26.38,26.38,0,0,1,998.1,358.8c-15.36-.17-28.28-12.49-28.76-27.46s11.52-26.78,26.75-26.67l-1.12-35c-35.19-.59-63.08,26.81-62,61.19s30.93,62.71,66.22,63c25.34.18,46.68-14.14,56.14-34.91Z" transform="translate(17.13)"/><path class="cls-14" d="M1685,805c.44,15-10.88,27.89-25.2,28.53L408.61,895.06c-36,2.23-52.28-17-52.88-34.48l-23.2-681.76L337,115.76c-.6-17.56,7.39-50.63,26.61-49.84l1275.1,52.3c14.4.59,26.5,13.44,27,28.56Z" transform="translate(17.13)"/><path class="cls-19" d="M1667.73,217.73l-2.08-70.95c-.45-15.12-12.55-28-10.91-33.86L380.67,61.85c-44.74,1.84-51.92,27.79-51.32,45.35l3.14,71.62,23.94-4.15Z" transform="translate(17.13)"/><path class="cls-16" d="M1722.65,807.64c.45,15.21-11,28.18-25.44,28.84l-1280.93,58C397,895.35,380.62,881.62,380,864l-23.58-689.3,6.88-80.61c-.61-17.75,7.25-27.3,26.67-26.51l1285.81,46c14.54.59,26.76,13.59,27.21,28.87Z" transform="translate(17.13)"/><path class="cls-20" d="M1705.12,214.13l-2.12-71.7c-.45-15.28-12.67-28.28-27.21-28.87l-1287.95-53c-19.42-.8-34.87,13.07-34.26,30.83l2.85,83.31Z" transform="translate(17.13)"/><path class="cls-21" d="M442,121.55c.3,8.79-7.23,15.65-16.82,15.33s-17.67-7.73-18-16.55,7.26-15.68,16.88-15.32S441.67,112.77,442,121.55Z" transform="translate(17.13)"/><path class="cls-21" d="M516.65,124.17c.29,8.72-7.11,15.53-16.56,15.21s-17.4-7.66-17.7-16.41,7.16-15.56,16.63-15.21S516.36,115.45,516.65,124.17Z" transform="translate(17.13)"/><path class="cls-21" d="M590.18,126.75c.29,8.65-7,15.41-16.31,15.1s-17.13-7.6-17.42-16.28,7-15.45,16.37-15.1S589.89,118.1,590.18,126.75Z" transform="translate(17.13)"/><path class="cls-15" d="M906.73,507.21c-9.89,0-18.17-7.76-18.48-17.34L880.65,255a16.28,16.28,0,0,1,4.74-12.13,17.48,17.48,0,0,1,12.9-5.07L1226,245.64a18,18,0,0,1,17.33,17.2l7,225.69a16.43,16.43,0,0,1-16.42,17l-327.07,1.66Zm-8.9-265.3a13.22,13.22,0,0,0-9.51,3.85,12.23,12.23,0,0,0-3.55,9.09l7.61,234.88c.23,7.38,6.67,13.35,14.35,13.35h.08l327.07-1.65a12.3,12.3,0,0,0,12.31-12.77l-7-225.69a13.81,13.81,0,0,0-13.31-13.2l-327.67-7.85Z" transform="translate(17.13)"/><path class="cls-14" d="M1610.33,503.05l-299.21,1.51a15.15,15.15,0,0,1-15.07-14.67l-7-224.45A13.76,13.76,0,0,1,1303.28,251L1603,258.21c7.53.18,13.8,6.69,14,14.54l6.44,216C1623.72,496.63,1617.84,503,1610.33,503.05Z" transform="translate(17.13)"/><path class="cls-15" d="M1615.66,500.9l-299.21,1.51a15.14,15.14,0,0,1-15.07-14.66l-7-224.45a13.77,13.77,0,0,1,14.18-14.42l299.73,7.18c7.52.19,13.8,6.69,14,14.54l6.44,216C1629.05,494.48,1623.17,500.86,1615.66,500.9Z" transform="translate(17.13)"/><polygon class="cls-16" points="1316.25 417.51 1316.45 424.02 1646.92 425.31 1646.73 419.05 1316.25 417.51"/><path class="cls-20" d="M1421.49,456.86h-82.65a1,1,0,0,1-1-1l-.34-11a1,1,0,0,1,1-1l82.66.14a1,1,0,0,1,1,1l.33,10.85A1,1,0,0,1,1421.49,456.86Z" transform="translate(17.13)"/><path class="cls-14" d="M1521.82,481l-182.22.49a1,1,0,0,1-1-1l-.34-11a1,1,0,0,1,1-1l182.24-.21a1,1,0,0,1,1,1l.32,10.72A.93.93,0,0,1,1521.82,481Z" transform="translate(17.13)"/><path class="cls-22" d="M1343,384.85a3,3,0,0,1-1.53-.41,3.09,3.09,0,0,1-1.15-4.22c21.27-37.19,45.6-57.31,72.31-59.8,16.9-1.57,29.93,4.51,42.51,10.4,11.35,5.3,23.09,10.79,38.29,11.19,28,.7,56.47-16.55,84.57-51.4a3.1,3.1,0,0,1,4.82,3.89c-29.38,36.42-59.46,54.53-89.55,53.69-16.49-.43-28.82-6.19-40.75-11.77-12.38-5.79-24.06-11.25-39.31-9.84-24.59,2.29-47.31,21.37-67.52,56.71A3.09,3.09,0,0,1,1343,384.85Z" transform="translate(17.13)"/><path class="cls-16" d="M1509.33,345.31a11.57,11.57,0,0,1-11.62,12.22,12.86,12.86,0,0,1-12.4-12.53A11.57,11.57,0,0,1,1497,332.78,12.86,12.86,0,0,1,1509.33,345.31Z" transform="translate(17.13)"/><path class="cls-23" d="M1497.85,359.1h-.16a14.46,14.46,0,0,1-14-14.06,13.51,13.51,0,0,1,3.83-10,12.84,12.84,0,0,1,9.22-3.84h.2a14.46,14.46,0,0,1,13.91,14.06,13.48,13.48,0,0,1-3.82,10A12.84,12.84,0,0,1,1497.85,359.1Zm-1.06-24.75a9.7,9.7,0,0,0-7,2.91,10.37,10.37,0,0,0-2.93,7.69,11.28,11.28,0,0,0,10.85,11,9.55,9.55,0,0,0,7.11-2.92,10.36,10.36,0,0,0,2.93-7.68,11.3,11.3,0,0,0-10.83-11Z" transform="translate(17.13)"/><polygon class="cls-14" points="1457.81 291.53 1352.21 289.48 1351.64 271.17 1457.26 273.44 1457.81 291.53"/><polygon class="cls-17" points="1574.29 373.54 1532.71 373.13 1532.3 359.43 1573.88 359.91 1574.29 373.54"/><path class="cls-14" d="M827.66,811.8,469.15,825.47c-9.7.37-17.82-6.56-18.12-15.47l-8.35-245.88c-.3-8.93,7.35-16.25,17.06-16.34l359.19-3.27c9-.08,16.48,6.8,16.76,15.36l7.68,235.83C843.65,804.25,836.62,811.46,827.66,811.8Z" transform="translate(17.13)"/><path class="cls-15" d="M833,809.65l-358.5,13.67c-9.7.37-17.82-6.56-18.12-15.47L448,562c-.3-8.93,7.34-16.25,17.06-16.33l359.19-3.28c9-.08,16.48,6.8,16.76,15.36l7.68,235.83C849,802.1,842,809.31,833,809.65Z" transform="translate(17.13)"/><polygon class="cls-16" points="865.76 716.05 470.59 727.12 470.83 734.25 865.98 722.89 865.76 716.05"/><polygon class="cls-14" points="829.95 646.59 512.32 653.06 509.66 574.25 827.46 570.39 829.95 646.59"/><polygon class="cls-14" points="831.31 688.19 513.77 696.1 512.84 668.29 830.43 661.31 831.31 688.19"/><path class="cls-24" d="M600.15,765.29l-100.72,3.27a1.15,1.15,0,0,1-1.23-1.06l-.4-12a1.14,1.14,0,0,1,1.15-1.13l100.73-3.12a1.13,1.13,0,0,1,1.2,1l.39,11.88A1.12,1.12,0,0,1,600.15,765.29Z" transform="translate(17.13)"/><path class="cls-14" d="M694.56,788.67l-194.22,6.86a1.14,1.14,0,0,1-1.23-1l-.4-12a1.14,1.14,0,0,1,1.15-1.13l194.24-6.57a1.11,1.11,0,0,1,1.17,1l.39,11.75A1.11,1.11,0,0,1,694.56,788.67Z" transform="translate(17.13)"/><path class="cls-14" d="M833,491.19c.28,8.57-6.77,15.56-15.75,15.6l-359.29,1.82c-9.72.05-17.86-7.16-18.16-16.09l-8.37-246.43c-.3-9,7.36-16,17.1-15.78l360,8.62c9,.22,16.52,7.35,16.8,15.94Z" transform="translate(17.13)"/><path class="cls-15" d="M838.79,489.3c.28,8.57-6.76,15.56-15.75,15.6l-359.29,1.82c-9.72,0-17.86-7.16-18.16-16.09L437.23,244.2c-.31-8.95,7.36-16,17.09-15.78l360,8.62c9,.22,16.51,7.35,16.79,15.94Z" transform="translate(17.13)"/><polygon class="cls-16" points="855.88 415.68 459.86 413.83 460.1 420.98 856.1 422.52 855.88 415.68"/><polygon class="cls-16" points="643.99 230.81 650.27 419.55 657.75 419.58 651.47 231 643.99 230.81"/><polygon class="cls-14" points="614.13 344.48 501.85 343.13 498.8 252.85 611.15 255.27 614.13 344.48"/><polygon class="cls-14" points="615.76 393.19 503.51 392.42 502.44 360.57 614.71 361.72 615.76 393.19"/><path class="cls-25" d="M544.18,456.71H488.89a1.2,1.2,0,0,1-1.23-1.1l-.4-12a1.09,1.09,0,0,1,1.15-1.09l55.29.09a1.18,1.18,0,0,1,1.21,1.09l.4,12A1.08,1.08,0,0,1,544.18,456.71Z" transform="translate(17.13)"/><path class="cls-14" d="M625.5,483.34l-135.7.4a1.19,1.19,0,0,1-1.22-1.09l-.41-12a1.1,1.1,0,0,1,1.15-1.1L625,469.45a1.15,1.15,0,0,1,1.17,1.07l.39,11.75A1.07,1.07,0,0,1,625.5,483.34Z" transform="translate(17.13)"/><polygon class="cls-16" points="719.53 391.68 688.27 391.46 683.81 256.83 715.1 257.5 719.53 391.68"/><polygon class="cls-16" points="771.45 392.05 740.54 391.83 736.12 257.95 767.07 258.62 771.45 392.05"/><polygon class="cls-16" points="822.79 392.42 792.22 392.2 787.86 259.06 818.46 259.72 822.79 392.42"/><g class="cls-26"><polygon class="cls-27" points="719.53 391.68 688.27 391.46 685.96 321.56 717.23 322.01 719.53 391.68"/><polygon class="cls-28" points="771.45 392.05 740.54 391.83 737.15 289.03 768.08 289.59 771.45 392.05"/><polygon class="cls-29" points="822.79 392.42 792.22 392.2 789.25 301.74 819.85 302.25 822.79 392.42"/></g><path class="cls-14" d="M1618.65,781.65,1320,793a14.53,14.53,0,0,1-15-14.15l-6.94-224A14.29,14.29,0,0,1,1312.21,540l299.14-2.73c7.51-.07,13.77,6.23,14,14.06L1631.79,767C1632,774.79,1626.14,781.36,1618.65,781.65Z" transform="translate(17.13)"/><path class="cls-15" d="M1624,779.5l-298.61,11.38a14.54,14.54,0,0,1-15-14.15l-6.93-224a14.29,14.29,0,0,1,14.15-14.86l299.14-2.73c7.51-.07,13.77,6.23,14,14.06l6.43,215.63C1637.35,772.64,1631.47,779.21,1624,779.5Z" transform="translate(17.13)"/><polygon class="cls-16" points="1325.13 703.18 1325.33 709.67 1655.15 700.19 1654.97 693.94 1325.13 703.18"/><path class="cls-20" d="M1403.82,739.18,1347.6,741a1,1,0,0,1-1-1l-.33-10.94a1,1,0,0,1,1-1l56.22-1.75a1,1,0,0,1,1,1l.33,10.87A1,1,0,0,1,1403.82,739.18Z" transform="translate(17.13)"/><path class="cls-14" d="M1463.32,761.53l-115,4.05a1,1,0,0,1-1-1l-.34-10.93a1,1,0,0,1,1-1l115-3.89a1,1,0,0,1,1,1l.32,10.79A1,1,0,0,1,1463.32,761.53Z" transform="translate(17.13)"/><polygon class="cls-16" points="1373.22 678.84 1355.83 679.28 1352.36 566.79 1369.76 566.57 1373.22 678.84"/><polygon class="cls-16" points="1398.96 678.18 1381.68 678.62 1378.23 566.46 1395.53 566.25 1398.96 678.18"/><polygon class="cls-16" points="1424.56 677.53 1407.38 677.97 1403.95 566.14 1421.15 565.93 1424.56 677.53"/><polygon class="cls-16" points="1450.01 676.89 1432.93 677.32 1429.52 565.83 1446.61 565.61 1450.01 676.89"/><polygon class="cls-16" points="1475.31 676.25 1458.33 676.68 1454.94 565.51 1471.93 565.3 1475.31 676.25"/><polygon class="cls-16" points="1500.45 675.61 1483.58 676.04 1480.21 565.19 1497.1 564.98 1500.45 675.61"/><polygon class="cls-16" points="1525.46 674.98 1508.68 675.4 1505.33 564.88 1522.12 564.67 1525.46 674.98"/><polygon class="cls-16" points="1550.31 674.35 1533.63 674.77 1530.3 564.57 1546.99 564.36 1550.31 674.35"/><polygon class="cls-16" points="1575.03 673.72 1558.44 674.14 1555.13 564.26 1571.73 564.05 1575.03 673.72"/><polygon class="cls-16" points="1599.6 673.1 1583.11 673.51 1579.81 563.95 1596.32 563.75 1599.6 673.1"/><polygon class="cls-16" points="1624.02 672.48 1607.63 672.89 1604.35 563.65 1620.76 563.44 1624.02 672.48"/><g class="cls-30"><polygon class="cls-20" points="1373.22 678.84 1355.83 679.28 1354.03 620.87 1371.42 620.54 1373.22 678.84"/><polygon class="cls-20" points="1398.96 678.18 1381.68 678.62 1379.03 592.5 1396.33 592.23 1398.96 678.18"/><polygon class="cls-20" points="1424.56 677.53 1407.38 677.97 1405.05 601.99 1422.24 601.7 1424.56 677.53"/><polygon class="cls-20" points="1450.01 676.89 1432.93 677.32 1430.59 600.72 1447.67 600.44 1450.01 676.89"/><polygon class="cls-20" points="1475.31 676.25 1458.33 676.68 1455.72 591.31 1472.71 591.05 1475.31 676.25"/><polygon class="cls-20" points="1500.45 675.61 1483.58 676.04 1481.29 600.72 1498.17 600.44 1500.45 675.61"/><polygon class="cls-20" points="1525.46 674.98 1508.68 675.4 1506.21 594.04 1523 593.78 1525.46 674.98"/><polygon class="cls-20" points="1550.31 674.35 1533.63 674.77 1531.42 601.76 1548.12 601.48 1550.31 674.35"/><polygon class="cls-20" points="1575.03 673.72 1558.44 674.14 1556.19 599.48 1572.78 599.21 1575.03 673.72"/><polygon class="cls-20" points="1599.6 673.1 1583.11 673.51 1580.58 589.38 1597.08 589.13 1599.6 673.1"/><polygon class="cls-20" points="1624.02 672.48 1607.63 672.89 1605.26 593.82 1621.66 593.55 1624.02 672.48"/></g><path class="cls-14" d="M1242.45,796,916.06,808.43c-8.82.34-16.2-6.28-16.47-14.78L892,559.27c-.27-8.52,6.67-15.49,15.5-15.57l327-3a15.22,15.22,0,0,1,15.28,14.68l7,225.24A14.91,14.91,0,0,1,1242.45,796Z" transform="translate(17.13)"/><path class="cls-15" d="M1247.78,793.84,921.39,806.28c-8.82.34-16.2-6.28-16.47-14.78l-7.59-234.38c-.28-8.52,6.67-15.48,15.5-15.56l327-3a15.2,15.2,0,0,1,15.28,14.67l7,225.24A14.91,14.91,0,0,1,1247.78,793.84Z" transform="translate(17.13)"/><polygon class="cls-16" points="1279.41 704.52 919.58 714.6 919.8 721.39 1279.62 711.04 1279.41 704.52"/><path class="cls-17" d="M1056,750.48,947.68,754a1.06,1.06,0,0,1-1.11-1l-.37-11.44a1.06,1.06,0,0,1,1-1.08l108.36-3.36a1.06,1.06,0,0,1,1.09,1l.36,11.3A1.05,1.05,0,0,1,1056,750.48Z" transform="translate(17.13)"/><path class="cls-14" d="M1143.69,772.81l-195.18,6.9a1.05,1.05,0,0,1-1.11-1L947,767.26a1.06,1.06,0,0,1,1-1.07l195.2-6.61a1,1,0,0,1,1.07,1l.35,11.19A1,1,0,0,1,1143.69,772.81Z" transform="translate(17.13)"/><path class="cls-31" d="M934.49,648.92a3.13,3.13,0,0,1-1.35-.31,3.1,3.1,0,0,1-1.44-4.13c11.4-23.54,24.6-36.36,39.26-38.1,9-1.07,15.85,2.29,22.45,5.54,7,3.45,13.58,6.71,23.3,5.51,7.39-.91,10.92-3.7,15.4-7.24s9.78-7.71,19.82-10.43c11-3,17.75-1.58,25.63,0a90.36,90.36,0,0,0,22,2.3c13.62-.28,20.88-3.29,30.07-7.11a144.6,144.6,0,0,1,25.79-8.54c19.9-4.5,41.35-4.81,63.76-1a3.09,3.09,0,1,1-1.05,6.1c-21.61-3.73-42.25-3.43-61.35.89A138.65,138.65,0,0,0,1132,600.7c-9.4,3.9-17.53,7.27-32.31,7.58a96,96,0,0,1-23.33-2.43c-7.39-1.51-13.24-2.7-22.77-.12-8.82,2.39-13.28,5.91-17.6,9.32-4.82,3.81-9.38,7.41-18.49,8.52-11.55,1.41-19.65-2.57-26.79-6.1-6.31-3.11-11.77-5.79-19-5-12.42,1.48-24,13.14-34.41,34.65A3.1,3.1,0,0,1,934.49,648.92Z" transform="translate(17.13)"/><polygon class="cls-14" points="1239.93 677.67 1128.87 680.43 1127.41 634.06 1238.5 631.88 1239.93 677.67"/><path class="cls-14" d="M1000.36,579.38l-58.28.78a1.09,1.09,0,0,1-1.12-1l-.37-11.45a1,1,0,0,1,1-1.06l58.28-.69a1.08,1.08,0,0,1,1.1,1l.37,11.38A1,1,0,0,1,1000.36,579.38Z" transform="translate(17.13)"/><path class="cls-7" d="M428.37,1136.83c-57.45,2.44-121.36,7.5-196.89,33.43-17.14,5.88-176.72,64.73-171.74,98.54,3.68,25,87.73,14,219.41,50.25,138.87,38.25,164.34,58,245.82,61.11,93.52,3.53,98.46-37.07,219.18-48.3,68.32-6.35,91,4.4,156.37,12.32,26.51,3.21,41,4,83.25,6.26,192.52,10.22,227.09,19.89,233.81,4.74,11.32-25.51-69.34-92.12-144.65-131-65.47-33.85-121.3-43.86-228.47-63.16C660.29,1127.81,523.72,1132.78,428.37,1136.83Z" transform="translate(17.13)"/><path class="cls-8" d="M857.15,1198.77c-487.48-123.2-515.19-97.83-523.1-84.94-14.43,23.5,1.68,66.26,31.37,105.13-26.15-5.47-51.64-5.9-73,2.34-44.14,17-100.82,3.3-102.11,16-1.45,14.15,62,38.29,97.67,39.07,77.66,1.68,163.13,24.19,206.66,31.27,93.92,24.19,200-5.44,247.89-14.48,85.72-16.18,119.91-37.4,208.77-37.67,71.28-.22,123.72,12.82,124.73,8.22C1078,1254.78,881.83,1205,857.15,1198.77Z" transform="translate(17.13)"/><g class="cls-32"><path class="cls-33" d="M272.21,970.1H374.54s19.26-52.49-5.82-89.54c-51.16-75.58,18.61-115.11,45.35-136,40.33-31.57,58.11-72.35,9.6-98.81-54.87-29.93-6.5-109.6,66-151.19,70.93-40.7,39.52-190.27-122.09-116.28-96.51,44.18-81.4,146.51-86.05,200s-84.2,57.91-57,123.25C247.79,757.31,292,798,258.26,836.38S221.05,917.77,272.21,970.1Z" transform="translate(17.13)"/><path class="cls-6" d="M316.46,979.6c-.24-1.32-24-133.45-8-271.55,9.39-81.18,30.45-148.53,62.61-200.17,40.26-64.65,98.08-104.73,171.87-119.11l.42,2.19c-165.71,32.31-218,190.41-232.68,317.35-15.93,137.77,7.75,269.57,8,270.89Z" transform="translate(17.13)"/><path class="cls-6" d="M355.4,535.65c-8.93-71.78,18.36-173.54,18.64-174.56l2.16.58c-.28,1-27.46,102.37-18.58,173.7Z" transform="translate(17.13)"/><path class="cls-6" d="M383.46,493.33l-1.18-1.89c73.62-45.87,142.5-23.79,143.19-23.57l-.71,2.13C524.09,469.77,456.16,448,383.46,493.33Z" transform="translate(17.13)"/><path class="cls-6" d="M305.17,798.91,303,798.4c24.39-102.82,164.76-128.64,166.12-128.64l.06,2.23C467.8,672.12,329.28,697.22,305.17,798.91Z" transform="translate(17.13)"/><path class="cls-6" d="M304.42,755.76c-13.4-64.49-83.55-109-84.25-109.42l1.18-1.9c.72.45,71.66,45.45,85.27,110.86Z" transform="translate(17.13)"/><path class="cls-6" d="M315.39,958.38l-2.23-.18c3.21-40.83,59-71.8,61.42-73.1l1.07,2C375.08,887.38,318.5,918.76,315.39,958.38Z" transform="translate(17.13)"/><path class="cls-6" d="M309.29,927.23c-5.14-30.11-51.45-64.24-66.67-75.45a51.66,51.66,0,0,1-4.68-3.61l1.68-1.49c.28.31,2.16,1.7,4.33,3.3,15.4,11.34,62.25,45.87,67.54,76.88Z" transform="translate(17.13)"/></g><path class="cls-34" d="M496.1,807.62S427.37,688.6,334.41,891c-72.38,157.6-25.6,332.94,141.85,381s429-49.06,346.9-117.53C649,1009.26,516.86,880.51,496.1,807.62Z" transform="translate(17.13)"/><g class="cls-35"><path class="cls-36" d="M416.29,914.87c-4.57,14.52-12.44,55.18-10.38,102.41,1.85,42.13-2,64.15,65,94.8,23,10.5,38.86,43.83,74,63.66,16,9,76,41.51,153.61,28.37,51.34-8.7,89.56-33.88,115.3-57.34C644.37,1004.7,516.49,879.21,496.1,807.62c0,0-25.11-43.46-65.5-33.17,9.79,10.92,20.57,27.5,23.75,49.77C458.85,855.75,431.32,867.23,416.29,914.87Z" transform="translate(17.13)"/></g><g class="cls-37"><path class="cls-38" d="M744.28,1224.17c-79.19,43.73-211.46,70.42-310-2.76-91.23-67.77-99.36-181.26-102.4-215.89-5.32-60.54,6.51-113.24,23.56-155.76-6.86,12-13.87,25.65-21,41.24-72.38,157.6-25.6,332.94,141.85,381,164.83,47.35,420.81-46,350.51-114.29A311.19,311.19,0,0,1,744.28,1224.17Z" transform="translate(17.13)"/></g><path class="cls-39" d="M619.52,1237.4c-2.35,0-4.71,0-7.09-.08-61.22-1.36-147.17-21.7-209-110.8-52.2-75.27-45.21-160.2-30.16-218.2,16.28-62.74,45.27-108.35,45.56-108.8A1.33,1.33,0,0,1,421.1,801c-.28.45-29.08,45.76-45.24,108.12C361,966.5,354,1050.59,405.65,1125c61.14,88.15,146.18,108.29,206.75,109.66,65.82,1.48,117.7-18.18,118.22-18.38a1.33,1.33,0,0,1,1,2.49C731.07,1219,682.38,1237.4,619.52,1237.4Z" transform="translate(17.13)"/><path class="cls-40" d="M948,1225.9c-4.36-4.7-12.18-24.92,2.08-29.08s22.32-9.47,42.07-25.3,24.82-2.24-3.07,23.48S954.17,1232.58,948,1225.9Z" transform="translate(17.13)"/><path class="cls-41" d="M929.27,1196.37,941,1206.62a7.36,7.36,0,0,0,8.78.68,4.77,4.77,0,0,0,.56-7.67l-17.18-14.7Z" transform="translate(17.13)"/><path class="cls-42" d="M577.38,1097.59c-20.76,18.18,22.57,77.82,91.8,58.49,83.88-23.42,190.57-12.9,262.48,45.65,4.17-3.71,14.51-9.53,9.78-14.31-65-65.69-125.14-103.41-175-113.52C691.11,1058.6,636.49,1045.81,577.38,1097.59Z" transform="translate(17.13)"/><g class="cls-43"><path class="cls-44" d="M820.74,1122.56c12.17,7.08,14.77-7.3,21-16.76-26.95-16.55-52.26-27.22-75.33-31.9-75.35-15.3-130-28.09-189.08,23.69-20.76,18.18,22.57,77.82,91.8,58.49a322.81,322.81,0,0,1,79.68-11.45C771,1130.69,789.18,1098.69,820.74,1122.56Z" transform="translate(17.13)"/></g><path class="cls-45" d="M565.13,1159.71l-4.26,1.63s-27.56-26-32.48-32.66c-6-8.09,61.5-28.72,83.42-55.71,23-28.37,4.84,33.67,4.84,33.67Z" transform="translate(17.13)"/><path class="cls-46" d="M540.13,904.39s24.47,3.36,51.3,50.93c20.18,35.78,64,65.41,64,65.41l4.49,28.15-36.35,6.38-13-8.56-35.47-75.47Z" transform="translate(17.13)"/><path class="cls-47" d="M492.69,901.36s-60.32,7.44-61.61,76.84c-1.2,64,21.91,88.86,78.61,142.27,5.7,5.37,14.95,5.37,15.64,6.15q5.52,6.23,11.19,13c50.74-48.7,108-65.2,108-65.2S591.56,965,568.31,928.66C544.33,891.25,508.17,897.64,492.69,901.36Z" transform="translate(17.13)"/><g class="cls-48"><path class="cls-49" d="M592.83,1063c-25.46,13.62-61.55,12.08-74.82-4.78-10-12.69-11.61-17.43-23.78-37.36-9.78-16-14.55-18.62-35.93-32.12a107.73,107.73,0,0,1-26.21-23.53,106.18,106.18,0,0,0-1,13c-1.2,64,21.91,88.86,78.61,142.27,5.7,5.37,14.95,5.37,15.64,6.15q5.52,6.23,11.19,13c50.74-48.7,108-65.2,108-65.2s-8.78-17.22-20.41-41.43C615.63,1047.14,609.17,1054.3,592.83,1063Z" transform="translate(17.13)"/></g><path class="cls-50" d="M551.24,1065.08s11.43.52,19.55-2.75,7.45-4,16.8-5.2c9.08-1.16,27-6.55,16.84-15.76-11.27-10.26-30.6-7.38-36.15-.57-5.35,6.56-14.63,10.73-14.63,10.73Z" transform="translate(17.13)"/><path class="cls-51" d="M449.29,936s-33.5,3.9-14,111.78c10.14,56,60.26,48.07,120.77,25,4.1-8.57-1.17-26.73-1.17-26.73s-75.19,31-77.13-14.23C475.62,981,468.83,930.6,449.29,936Z" transform="translate(17.13)"/><path class="cls-52" d="M506.73,924.43c-14.39,0-29-10.64-29.68-11.16a.66.66,0,0,1-.14-.93.68.68,0,0,1,.93-.14c.19.15,19.3,14.06,34.74,10.21,4.25-1.06,7.16-3.14,8.65-6.17,2.84-5.79-.38-13.25-.41-13.32a.66.66,0,1,1,1.21-.54c.15.33,3.5,8.09.4,14.44-1.67,3.4-4.88,5.72-9.53,6.88A25.27,25.27,0,0,1,506.73,924.43Z" transform="translate(17.13)"/><path class="cls-53" d="M528,1124.52a.64.64,0,0,1-.49-.22.66.66,0,0,1,0-.94c.54-.49,54.56-48.84,103.34-60.77a.68.68,0,0,1,.81.49.67.67,0,0,1-.49.8c-48.46,11.85-102.23,60-102.77,60.47A.66.66,0,0,1,528,1124.52Z" transform="translate(17.13)"/><path class="cls-54" d="M476.65,859.41s8.55,34.6,6.84,41.68,8.41,14.77,26.16,15.56-1.91-35.55-1.91-35.55Z" transform="translate(17.13)"/><path class="cls-55" d="M537,825.73c11.06-18.26-3-44.55-25.95-35.44-15.66,6.22-25.59,1.82-35.95,5.65-18.46,6.81-16.46,19.93-12.2,33.29,3.71,26.47,3.57,36.91,31.89,52.39C505.59,844.13,523.52,848,537,825.73Z" transform="translate(17.13)"/><path class="cls-56" d="M480.08,872.14s11.4,18.86,34.24,17.46,16.34-53.89,10.6-56.87c-6.66-3.46-16,1-31.17-1.43-6.4-1-12.3-8.49-15,.08-3.1,9.76-.8,24.52-.8,24.52s-7-6.09-10.61.38C464.45,861.51,469.2,868.21,480.08,872.14Z" transform="translate(17.13)"/><path class="cls-57" d="M478.42,820.15s-1.1,31.3,6.66,41c3.53,6.09-1.05,6.22-4.91,1.73s-8-18.85-8-18.85Z" transform="translate(17.13)"/><path class="cls-58" d="M483.11,796.7H483a.63.63,0,0,1-.66-.6.62.62,0,0,1,.58-.65h.05c1-.07,21-1.41,25.26-9.7a.63.63,0,0,1,1.11.58C504.74,795.14,485.18,796.57,483.11,796.7Z" transform="translate(17.13)"/><path class="cls-59" d="M559.28,1079.57a1.47,1.47,0,0,0-1.2,1c0,.08.2,2.82.19,2.9a1.37,1.37,0,0,0,.94,1.42l51.29,16.66L706.35,1064l-45.54,3.48Z" transform="translate(17.13)"/><path class="cls-60" d="M559.25,1079.2a1.38,1.38,0,0,0-.22,2.67l51.29,16.66L706.17,1061l-45.55,3.48Z" transform="translate(17.13)"/><path class="cls-61" d="M608.05,1097.78l7.64-100a3.47,3.47,0,0,1,2.92-3.16l114.78-18a3.46,3.46,0,0,1,4,3.58l-4.31,93.19a3.47,3.47,0,0,1-2.83,3.25L611,1098.77Z" transform="translate(17.13)"/><path class="cls-59" d="M610.5,1101.55l7.88-102.19a3.48,3.48,0,0,1,2.92-3.16l114.79-18a3.4,3.4,0,0,1,2.84.84,3.44,3.44,0,0,1,1.15,2.74L735.77,1075a3.45,3.45,0,0,1-2.81,3.24Z" transform="translate(17.13)"/><path class="cls-62" d="M610.5,1101.55,733,1078.27a3.45,3.45,0,0,0,2.81-3.24l1.3-28.11c-36.48,20.71-82.19,23.35-124.8,31.66Z" transform="translate(17.13)"/><path class="cls-63" d="M817.91,1080.6c-1.67-5.81-5.37-12.23,7.84-16.92,9.58-3.4,26.24-4.5,41.37-5.27,21.22-1.09,26.09,11.6-4.91,19.67C841.91,1083.37,820.29,1088.87,817.91,1080.6Z" transform="translate(17.13)"/><path class="cls-64" d="M834.44,1071.7a5.63,5.63,0,0,1-4.58,6.19c-6.27.9-5.09-2.33-5.29-5.58s-2.74-5.51,4.57-6.2C831.86,1065.86,834.24,1068.45,834.44,1071.7Z" transform="translate(17.13)"/><path class="cls-65" d="M770,1053l6.19-1s12.07,1.13,45.33,10.3c7.12,1.18,16.83,22-4,22.78s-46.25,16.35-46.25,16.35Z" transform="translate(17.13)"/><path class="cls-66" d="M553.42,1149.68s3,27,65.75,24.51,174.72-67.54,174-101.7-42.39-20.51-85.55-.77c-36.42,16.67-92.69,26.32-104.23,28.11C588.64,1102.12,549.86,1136.73,553.42,1149.68Z" transform="translate(17.13)"/><g class="cls-48"><path class="cls-67" d="M635.47,1115.89c29-3,35.54-23.79,71.66-29.81,23.4-3.9,31.67,3,43.6-5,9.42-6.31,14.22-17.31,16.54-29.25-16,1.35-37.61,9.8-59.64,19.87-35.38,16.19-89.48,25.76-103.12,27.93-.41.07-9.56-3.2-9.56-3.2s-6.81,3.89-11.69,7C602.29,1113.61,624.87,1117,635.47,1115.89Z" transform="translate(17.13)"/></g><path class="cls-68" d="M232,1162.31c-18.58,29.31-8.94,62.35,1.5,85.12,3.15.43,4.87,1.55,7.95,2.75,27.83,10.8,57.71,16.23,86.66,22.21,6.23,1.29,12.35,1.59,18.67,2.4l6.44.66s41.65-88.27,5.6-114.38-11.19-99.72-2.49-140.5C380,909.92,257.8,904.1,276.79,759.47c5-38.46,27.54-110.13-.83-145.05-32.33-39.79-63.82-9.12-83.72-41.44C161.15,522.45,103.07,498.12,61,540.31,19.38,582,50.25,679.88,147.5,768.17c62.6,71.24,61.25,89.91,49.72,134.29-8.09,31.08-49.11,109.41-10.57,148S253.27,1128.81,232,1162.31Z" transform="translate(17.13)"/><g class="cls-69"><path class="cls-13" d="M299.05,1264.36l-2.25,0c.1-12.89,0-25.91-.18-38.69-1.63-94.51-12-185.45-30.88-270.28-16-71.86-38.25-140.35-66.19-203.59a910.86,910.86,0,0,0-78-141.84,728.18,728.18,0,0,0-64.94-83c-3.9-4.26-8.14-8.43-12.25-12.46-5.54-5.43-11.26-11.05-16.28-17.05L29.82,496c4.94,5.91,10.63,11.49,16.13,16.89,4.12,4.05,8.39,8.24,12.33,12.55a730.87,730.87,0,0,1,65.15,83.24,913.3,913.3,0,0,1,78.17,142.2c28,63.36,50.32,132,66.33,204,18.9,85,29.3,176.06,30.93,270.72C299.08,1238.41,299.15,1251.45,299.05,1264.36Z" transform="translate(17.13)"/><path class="cls-13" d="M230.42,830.27c-28.38-89.48,26.73-240,27.29-241.52l2.11.78c-.56,1.5-55.41,151.32-27.26,240.06Z" transform="translate(17.13)"/><path class="cls-13" d="M287.42,1085.44c-11.89-61.56-117-122.14-118.11-122.74l1.11-2c1.07.6,107.12,61.69,119.2,124.26Z" transform="translate(17.13)"/><path class="cls-13" d="M291.2,1121.51c-.54-42,21.07-99.44,60.85-161.71.86-1.35,1.61-2.53,1.72-2.75l.86.42h1.3c0,.42,0,.42-2,3.54-39.55,61.91-61,118.9-60.49,160.47Z" transform="translate(17.13)"/><path class="cls-13" d="M296.65,1240.77c-13.36-42.7-75.59-67.22-76.21-67.47l.81-2.09c.63.24,63.86,25.15,77.54,68.89Z" transform="translate(17.13)"/><path class="cls-13" d="M300.11,1265l-2.11-.78c12.95-35,36.34-67.36,71.49-99l1.51,1.68C336.12,1198.24,312.93,1230.33,300.11,1265Z" transform="translate(17.13)"/><path class="cls-13" d="M138.43,635.77c-18.5-48.71-26.62-104.08-29.29-122.28-.46-3.16-.83-5.66-1-6.06l2.13-.71c.17.53.4,2.07,1.05,6.45C114,531.3,122.12,586.49,140.53,635Z" transform="translate(17.13)"/><path class="cls-13" d="M180,710.17C150.7,672.53,52,660.62,51,660.5l.26-2.23c4.09.48,100.64,12.15,130.53,50.52Z" transform="translate(17.13)"/></g><path class="cls-70" d="M230.93,1247c.39.17.77.35,1.17.51,28,10.8,57.71,16.23,86.66,22.21,3.9.81,7.82,1.48,11.76,2.08,5.23-14.62,9.24-36.17-9.51-41.94-29.11-8.95-29.42-60.29-21.28-78.38,10.08-22.4,32.48-75-12.31-89.58-37.29-12.12-63.83-12.32-66.07-60.47S193.08,923,149.4,925.55c-45.95,2.66-83.14-58.78-120.93-38.63-65.85,35.12-7.28,141.65,72.22,173s33.54,59.73,31.08,99.1c-3.36,53.75,69.42,42.83,88.46,64.1A44.2,44.2,0,0,1,230.93,1247Z" transform="translate(17.13)"/><g class="cls-71"><path class="cls-13" d="M275.67,1260.87c-30.5-154.93-136-294.29-275.42-363.71l1-2c140,69.72,246,209.69,276.62,365.28Z" transform="translate(17.13)"/><path class="cls-13" d="M254,1177.48h-2.25c.28-63.32,54.57-112.3,55.12-112.78l1.49,1.68C307.78,1066.85,254.23,1115.18,254,1177.48Z" transform="translate(17.13)"/><path class="cls-13" d="M269.26,1232.41c-29.18-54.67-142.72-63-143.87-63l.15-2.24c1.16.07,115.94,8.45,145.7,64.2Z" transform="translate(17.13)"/><path class="cls-13" d="M175.27,1042.15c-20.11-46.93,10.58-118.43,10.9-119.14l2.06.89c-.31.71-30.62,71.33-10.89,117.37Z" transform="translate(17.13)"/><path class="cls-13" d="M106.43,968.69C58.66,939-15.89,955-16.64,955.2l-.49-2.19c.76-.17,76.21-16.36,124.74,13.77Z" transform="translate(17.13)"/></g><path class="cls-72" d="M360.38,1275.42l.74,3.64c-63-.44-139.18-30.79-139.92-31.1-.54-.22.75-4.14,1-4.69a1.07,1.07,0,0,1,1.39-.59c.74.31,74.27,30.16,136.81,30.6a1.07,1.07,0,1,1,0,2.14Z" transform="translate(17.13)"/><path class="cls-14" d="M1355.7,540.45,1027,523.28c-9.14-.47-14.94-8-12.93-16.71L1069,267.46c2-8.61,10.86-14.82,19.81-13.88L1411,287.43c7.85.82,12.77,8,11,16l-48.61,223C1371.61,534.59,1363.7,540.87,1355.7,540.45Z" transform="translate(17.13)"/><path class="cls-73" d="M1359.81,541.52,1031.43,524.3c-9.13-.48-14.93-7.86-12.93-16.48l54.64-235.54c2-8.48,10.83-14.59,19.78-13.66l321.87,33.65c7.84.82,12.76,7.89,11,15.81l-48.35,219.65C1375.69,535.77,1367.8,541.94,1359.81,541.52Z" transform="translate(17.13)"/><polygon class="cls-16" points="1409.88 458.82 1052.72 433.82 1051.13 440.67 1408.48 465.2 1409.88 458.82"/><polygon class="cls-16" points="1309.59 279.5 1270.44 453.79 1277.11 454.24 1316.17 280.19 1309.59 279.5"/><path class="cls-17" d="M1200.46,485.93l-129.14-8a.9.9,0,0,1-.87-1.12l2.66-11.52a1.33,1.33,0,0,1,1.35-1l129,8.32a.87.87,0,0,1,.82,1.09L1201.74,485A1.27,1.27,0,0,1,1200.46,485.93Z" transform="translate(17.13)"/><path class="cls-14" d="M1228.76,513.14l-163.42-9.27a.88.88,0,0,1-.86-1.11l2.66-11.54a1.34,1.34,0,0,1,1.35-1l163.24,9.7a.85.85,0,0,1,.81,1.08L1230,512.18A1.29,1.29,0,0,1,1228.76,513.14Z" transform="translate(17.13)"/><polygon class="cls-14" points="1415.53 349.7 1320.9 340.96 1329.25 303.66 1423.61 313.11 1415.53 349.7"/><polygon class="cls-14" points="1396.01 438.16 1300.71 431.13 1317.33 356.87 1412.09 365.31 1396.01 438.16"/><path class="cls-16" d="M1170.14,330.65c15.29,1.4,24.94,14.49,21.59,29.19a29.78,29.78,0,0,1-5.36,11.3l28.87,17.26a67.75,67.75,0,0,0,11.89-25.49c7.57-33.47-14.26-63.41-49.09-66.85l-.27,0-7.91,34.6Z" transform="translate(17.13)"/><path class="cls-74" d="M1186.37,371.14c-6.51,8.59-17.43,14.05-28.48,13.15C1142.45,383,1132.59,369.9,1136,355s18.58-25.64,33.86-24.38l7.91-34.6c-35.23-3.34-70.58,21.59-78.47,55.8-7.92,34.38,15,64.59,50.65,67.24,25.46,1.89,50.54-10.83,65.29-30.68Z" transform="translate(17.13)"/><g class="cls-75"><path class="cls-76" d="M1041.89,379.9c-4.52,4.06,11.82,39.54,41.25,67.38,29.83,28.21,52.29,28.86,75.64,62.4,11.28,16.2,7.21,17.74,16,29.39,34.37,45.65,124.94,59.45,161.41,24.24,3.82-3.68,12.34-20,29.4-52.6A387.66,387.66,0,0,0,1385,466.53c7.51-20.33,11.65-31.8,7.57-35.07-8.35-6.66-37.22,29.66-56.39,21.32-12.12-5.28-6-25.13-22-39.19-13-11.37-30.65-10.81-35.24-10.66-40,1.27-44.5,45.34-82,53.63-31.18,6.89-64.17-15.59-112.42-48.47C1058.76,390.53,1045.19,376.92,1041.89,379.9Z" transform="translate(17.13)"/></g><path class="cls-77" d="M1048.42,394.68l-8.25-8.25a21,21,0,0,1-2.06-19.34c4.12-11.35,9.79-8.25,9.79-8.25l-1.54,8s-1,5.16,3.86,11.6a41.64,41.64,0,0,1,5.16,13.67Z" transform="translate(17.13)"/><path class="cls-78" d="M1391.87,426.82l9.28-8.42,4.13-15.3s11.34,4.47,5.15,18.91c-4,4.81-13.66,12-17.79,19.08S1391.87,426.82,1391.87,426.82Z" transform="translate(17.13)"/><path class="cls-79" d="M1300.42,529.44s44.52-27.5,55.35-37.3c11.29-10.21,41-49.5,43.58-54.14s-8-13.93-8-13.93-51.74,64.64-116.72,45.55C1285,492.83,1300.42,529.44,1300.42,529.44Z" transform="translate(17.13)"/><path class="cls-80" d="M1306.87,909.25s8.16,20.54,6,29.65a91.33,91.33,0,0,0,14.44-1.29s-3.52-9.37-4.21-14a137.57,137.57,0,0,1-.86-16.41Z" transform="translate(17.13)"/><path class="cls-59" d="M1216.86,957.29a6.52,6.52,0,0,1,1.54,3.78,6.24,6.24,0,0,1-.46,2.53c-1.4,3.66-3.58,4.14-5.94,8-1.44,2.38-1.17,3.09-2.49,4.16-1.74,1.42-3.85,1.5-5.68,1.52a102.87,102.87,0,0,1-13.11-.74q4.4-5.67,9.36-11.49,2.18-2.55,4.35-5l8.62-2.91Z" transform="translate(17.13)"/><path class="cls-81" d="M1209.69,915.46s-4.92,25.7,1.34,32.9c5.34,7.19-2.58,2.06-2.58,2.06l-9.45,8.25-5.67,9.8s5.22-25.15,3.83-35.13-2.09-16.72-2.09-16.72Z" transform="translate(17.13)"/><path class="cls-82" d="M1234.07,469.45c-24-4-58.3,8.1-98-12.89-39-20.65-62.11-51.12-75.55-70.65L1043,394.58c9.92,17.12,33.29,53.82,64.26,79.37,39,32.16,77.13,34,97.91,60.31C1215,524.58,1245.76,471.43,1234.07,469.45Z" transform="translate(17.13)"/><path class="cls-83" d="M1191.12,634.37s-13.23,11.84-13.23,60.59,6.27,154.58,6.27,154.58l10,75.78s10.4.37,17.36-1.72c6.27-28.55,16.48-76.84,11.6-117.23-2.09-43.87,17.41-98.88,17.41-98.88s16.71,55.71,28.55,83.56,34.38,115.11,36.47,121.38c13.85,1.26,19.76-2.41,19.76-2.41s-8.88-93.9-17.23-129.41-7.66-121.17-21.59-145.54C1255.18,622.54,1191.12,634.37,1191.12,634.37Z" transform="translate(17.13)"/><path class="cls-84" d="M1191.12,634.37s-13.23,11.84-13.23,60.59,6.27,154.58,6.27,154.58l10,75.78s10.4.37,17.36-1.72c6.27-28.55,16.48-76.84,11.6-117.23-2.09-43.87,17.41-98.88,17.41-98.88s16.71,55.71,28.55,83.56,34.38,115.11,36.47,121.38c13.85,1.26,19.76-2.41,19.76-2.41s-8.88-93.9-17.23-129.41-7.66-121.17-21.59-145.54C1255.19,622.54,1191.12,634.37,1191.12,634.37Z" transform="translate(17.13)"/><path class="cls-85" d="M1259.85,723.69c4.13,26.81,12.38,41.25,33,59.82,16.5,12.37,4.12,39.19,10.31,59.82,2.06,6.19,8.25,12.37,10.31,18.56,7.68,15.35.51,34.13,4,50.39,5.42-.75,7.87-2.26,7.87-2.26s-8.88-93.9-17.23-129.41-7.66-121.17-21.59-145.54c-31.33-12.53-95.4-.7-95.4-.7s-13.23,11.84-13.23,60.59c0,3.95,0,8.29.12,12.91,13.73,12.15,41.83,14.85,59.15,1.38a8.08,8.08,0,0,1,3.31-1.5c.06-.16.09-.26.09-.26l.07.24C1248.52,706.29,1258.06,716.53,1259.85,723.69Z" transform="translate(17.13)"/><path class="cls-59" d="M1310.73,946.7s-2,0-1.86,2.62-.92,11.68,9.43,12.1,11.94-.73,12.28-.73-2.72-8.65-2.72-8.65l-3.31-4.24-8.9-.93Z" transform="translate(17.13)"/><path class="cls-60" d="M1333.67,955.77a32.77,32.77,0,0,0-2.67-8.38c-1.83-4.11-.33-5.65-2.07-9.39a11.19,11.19,0,0,0-2.47-3.74,10.66,10.66,0,0,0-7.3-2.78,7.38,7.38,0,0,0-3.44.8,8,8,0,0,0-3.1,3.27c-1.08,1.77-.83,2.31-2.49,7.39a19.77,19.77,0,0,0-.65,2.52,18.41,18.41,0,0,0-.27,2.25c2.71,0,13.14.43,15.34,2a8.62,8.62,0,0,1,3.31,7c0,2.71,1.36,4,2.72,3.9S1334.2,958.37,1333.67,955.77Z" transform="translate(17.13)"/><path class="cls-60" d="M1208.37,944.75c2.33,0,4,1.89,5.33,6.36s7.47,8.42.26,7.47-12.47,9.29-15,13.07-9.5,7.14-9.32,3.44,3.22-5.42,4.08-9.2S1203.05,944.66,1208.37,944.75Z" transform="translate(17.13)"/><path class="cls-86" d="M1257.44,467.91c-11.68-.35-41.43-3.6-55.35,10.31-14.22,14.22.18,31.29-2.38,54.72-1.74,15.89-1.11,25.25-4.13,51.22a160.42,160.42,0,0,1-3.3,18.42c-4,16.93-10.88,50.22-14.59,58.54,11.9,6.11,42.59,17.06,79.14,11.62a123.37,123.37,0,0,0,39.46-13c-9.48-28.72-7.71-68.07-4.2-82.23,6.93-28,8.5-39,28.1-79.18,5.4-11.09-7.43-4.88-15.65-14.61C1291.94,468.79,1269.24,468.25,1257.44,467.91Z" transform="translate(17.13)"/><path class="cls-87" d="M1222.72,541.13c.6-5.16,1.57-14.6-3.09-24.49a37.75,37.75,0,0,0-8.25-11.35c-10.37-9.52-23.75-8.89-39-10a237.25,237.25,0,0,1-46.91-8.29c29.33,18.4,56.65,24.08,74.55,41.52,0,1.44-.13,2.91-.29,4.4-1.74,15.89-1.11,25.25-4.13,51.22a160.42,160.42,0,0,1-3.3,18.42c-4,16.93-10.88,50.22-14.59,58.54,11.9,6.11,42.59,17.06,79.14,11.62a123.37,123.37,0,0,0,39.46-13,140.06,140.06,0,0,1-5.8-28.26A118.78,118.78,0,0,1,1237.16,619c-11.33-5.74-17-8.61-20.37-15C1210.31,591.88,1218.18,580.54,1222.72,541.13Z" transform="translate(17.13)"/><path class="cls-88" d="M1240.45,433.3c1.69-13.05,12-21.42,14.27-23.21,9.43-7.5,11.35-8.25,14.59-8.87l4.42-.67.48,0c2.59.16,10.35,3.19,11.76,4.18,4.51,3.17,1.19,25.62-12.47,53.54l-1.62,7.1c11.91,2.09,14.87,4.24,15,5.95.2,3.72-12.84,8.46-24.93,8.77-15.15.39-31.25-6.13-30.94-11,.13-2,3-4.4,14-6.79l5.16-7.25C1248.56,453.18,1239.2,442.92,1240.45,433.3Z" transform="translate(17.13)"/><path class="cls-89" d="M1269.3,392c-4.75,4.65-5.92,12.72-4.51,18.54.84,3.48,1.93,3.85,1.77,6.13-.43,6.4-12.09,9.19-11.44,12.41.46,2.31,6.53,1.46,7.58,4.36,1.14,3.16-5.52,5.89-8.39,13.86-.44,1.24-3.15,8.78.32,13.22,3.25,4.14,10.51,3.16,18.71,2.1a65.91,65.91,0,0,0,17.41-4.68c6-2.62,12.4-5.45,17.73-11.93,1.26-1.54,8.68-10.85,8.06-23.86-.82-17.1-15.11-31.7-29.82-34C1284.33,387.79,1275.14,386.34,1269.3,392Z" transform="translate(17.13)"/><path class="cls-90" d="M1259.18,428.39c3.44-2.06,6.06,2.36,4.44,6.23s-7.06,6.28-10.36,4S1254.56,431.16,1259.18,428.39Z" transform="translate(17.13)"/><path class="cls-91" d="M1224.53,468.42l8.38-2.58s2.19,11.35,29.13,12.77a40.27,40.27,0,0,0,24.63-8.38l6.44,3s-13.28,16.9-33.26,16.5A40.07,40.07,0,0,1,1224.53,468.42Z" transform="translate(17.13)"/><g class="cls-92"><polygon class="cls-93" points="642.67 690.4 402.86 1088.16 1046.15 1088.16 817.78 698.62 642.67 690.4"/></g><path class="cls-94" d="M710.24,167.26a1.12,1.12,0,0,1-1.12-1.12v-16.5a1.12,1.12,0,1,1,2.24,0v16.5A1.12,1.12,0,0,1,710.24,167.26Z" transform="translate(17.13)"/><path class="cls-94" d="M710.24,621.05a1.12,1.12,0,0,1-1.12-1.12V166.14a1.12,1.12,0,1,1,2.24,0V619.93A1.12,1.12,0,0,1,710.24,621.05Z" transform="translate(17.13)"/><path class="cls-94" d="M710.24,637.55a1.12,1.12,0,0,1-1.12-1.12v-16.5a1.12,1.12,0,1,1,2.24,0v16.5A1.12,1.12,0,0,1,710.24,637.55Z" transform="translate(17.13)"/><path class="cls-94" d="M710.24,72.37a1.12,1.12,0,0,1-1.12-1.12V54.75a1.12,1.12,0,0,1,2.24,0v16.5A1.12,1.12,0,0,1,710.24,72.37Z" transform="translate(17.13)"/><path class="cls-94" d="M710.24,104a1.12,1.12,0,0,1-1.12-1.12V71.25a1.12,1.12,0,0,1,2.24,0v31.63A1.12,1.12,0,0,1,710.24,104Z" transform="translate(17.13)"/><path class="cls-94" d="M710.24,120.5a1.12,1.12,0,0,1-1.12-1.12v-16.5a1.12,1.12,0,0,1,2.24,0v16.5A1.12,1.12,0,0,1,710.24,120.5Z" transform="translate(17.13)"/><path class="cls-94" d="M710.24,29.31a1.12,1.12,0,0,1-1.12-1.12V1.12a1.12,1.12,0,1,1,2.24,0V28.19A1.12,1.12,0,0,1,710.24,29.31Z" transform="translate(17.13)"/><path class="cls-95" d="M805.93,708.67V679.46a41.42,41.42,0,0,0-41.3-41.29H655.85a41.42,41.42,0,0,0-41.3,41.29v29.21Z" transform="translate(17.13)"/><ellipse class="cls-96" cx="727.5" cy="707.67" rx="95.82" ry="18.97"/><path class="cls-97" d="M710.38,683.07c-40.57,0-76-5.76-84.17-13.69a.66.66,0,0,1,.93-1c8,7.71,43,13.31,83.24,13.31,37.41,0,70.94-4.92,81.53-12a.65.65,0,0,1,.92.19.66.66,0,0,1-.18.92C781.69,678.17,748.62,683.07,710.38,683.07Z" transform="translate(17.13)"/><path class="cls-98" d="M748,639.64a16.36,16.36,0,0,0-16.3-16.06h-43a16.36,16.36,0,0,0-16.31,16.31h0s0,.05,0,.08c0,4.13,16.94,7.48,37.83,7.48S748.1,644.1,748.1,640A2,2,0,0,0,748,639.64Z" transform="translate(17.13)"/><path class="cls-99" d="M1571.22,1180.39c12.27,18.32,76-.34,117.3-20.4,66.66-32.41,64.11-63.36,119.86-90.53,80.61-39.29,159.83-10.58,163.21-27.41,2.21-11.07-30.43-31.49-65-38.25-40.21-7.86-59.56,7.32-153,36.33-75.47,23.44-83.08,19.82-108.74,36.66C1597.57,1107.79,1559.05,1162.23,1571.22,1180.39Z" transform="translate(17.13)"/><path class="cls-59" d="M1951.18,940c2.14-2.73,6.92-3.75,10.36-2.71,6.75,2,6.7,15.16,8.29,29.17,1.81,15.89,4.41,32.76-2.71,32.67-3.17,0-8.89-9.69-10-18.64a89.7,89.7,0,0,0-5.34-20.64,56.63,56.63,0,0,1-1.52-8.82C1949.7,945.49,1949.41,942.32,1951.18,940Z" transform="translate(17.13)"/><path class="cls-100" d="M1959.87,951.44c0,6.86-11.57,9.64-18.57,9.64s-6.77-2.78-6.77-9.64.25-11.88,7.25-11.88S1959.87,944.57,1959.87,951.44Z" transform="translate(17.13)"/><path class="cls-101" d="M1654.89,1071.71l-11.4,45.17c.88,1.51,3.07,4.72,6.81,5.41,4.2.77,7.85-2.08,9.21-3.27,3-21.32,8.14-34.8,13.22-43.65,3.57-6.22,7.07-10.13,6.8-12.35C1679.05,1059,1666.73,1065,1654.89,1071.71Z" transform="translate(17.13)"/><path class="cls-102" d="M1627.62,798.52l-7,1s-12.39-.52-19.61.77-11.35,4.9-11.35,12.39,9.13,8.4,17,9.28c4.8.54,11.35-3.51,16.34-7.26,3.51-2.63,12.47-5,12.47-5Z" transform="translate(17.13)"/><path class="cls-103" d="M1676.2,547.62c-8.79,5.86-10.4,22.69-8.07,32.86a75,75,0,0,0,7.95,20.24c1.76,4.48,3.28,8.69,4.49,12.45.9,2.76,1.52,5,2.1,7.33a93.77,93.77,0,0,1,2.21,13.36.56.56,0,0,0,.56.52h0a.57.57,0,0,0,.52-.62,94.72,94.72,0,0,0-2.23-13.53c-.59-2.4-1.22-4.62-2.12-7.41-.64-2-1.38-4.1-2.17-6.3a61.64,61.64,0,0,1,7.43,20.78c4.84,27.91,31.65,36.07,47.41,30.06,13.94-5.33,24.05-19.17,25.89-32.54C1766,583,1695.54,534.73,1676.2,547.62Z" transform="translate(17.13)"/><path class="cls-104" d="M1731.46,787.7c-20.52,35.7-33.8,88.79-51,148.91-15.45,54-28.88,102.34-35.66,140.18a74.82,74.82,0,0,0,11.88,8c17.65,9.55,35.14,9.67,44.91,8.87a360.6,360.6,0,0,1,5.06-42.08c4.46-24.78,12.41-70.78,31.38-112.45,13.15-28.92,19.73-43.38,30.85-53.25,6.83-6.08,22.67-18.93,25.39-38.51a18,18,0,0,0,.15-2.47C1794.34,817.51,1743.51,793.14,1731.46,787.7Z" transform="translate(17.13)"/><path class="cls-105" d="M1731.46,787.7c-11.21,19.5-20.26,44.23-29,72.44,20.52,11,38,29.41,30,51.85-7.65,23-36.34,32.52-42.08,59.29-5.73,28.69,7.65,53.55,1.92,82.24-2.83,13.44-3.83,26.89-4.35,40.23a88.67,88.67,0,0,0,13.6-.08,360.6,360.6,0,0,1,5.06-42.08c4.46-24.78,12.41-70.78,31.38-112.45,13.15-28.92,19.73-43.38,30.85-53.25,6.83-6.08,22.67-18.93,25.39-38.51a18,18,0,0,0,.15-2.47C1794.34,817.51,1743.51,793.14,1731.46,787.7Z" transform="translate(17.13)"/><path class="cls-106" d="M1750.63,838.15a8.76,8.76,0,0,0-.68,3c-.4,10.16,18.37,23.46,59.17,88.54,7.2,11.49,19.49,31.61,39.39,37.58a39.38,39.38,0,0,0,6.4,1.36,41,41,0,0,0,11.41-.11c4.94-.69,24.07,0,78.56,4.88.44-1,9.73-22.58-2.17-37.54a28.81,28.81,0,0,0-10.85-8.24c-12.79-1.92-23.51-2.91-31.62-3.45a136.48,136.48,0,0,0-22.9-.07c-4.75.42-8.68,1-11.44,1.56-19.48-56.18-9.93-105-33.35-106C1827.87,819.41,1755.42,824,1750.63,838.15Z" transform="translate(17.13)"/><path class="cls-107" d="M1687.56,687.26c-11.89,4.13,6,46.64-18.39,79.23-12.32,16.47-30.86,24.31-47.06,28.33,3.29,10.56,2.74,10.59,6,21.15,8.49.35,40.19.65,67-22.38,6.83-5.87,28-24,29.36-52.31C1726.24,705.29,1698.77,683.37,1687.56,687.26Z" transform="translate(17.13)"/><path class="cls-108" d="M1702.21,645.62c-6,7.12-8.47,13.68-11.62,22.22-5,13.55-7.86,21.28-7.49,30.88.72,18.45,12.89,31.85,18.72,37.42,12.73,40.87,15.67,50.44,15.68,50.56V787a116,116,0,0,1-3.75,20.87c-6.31,22.9-15.13,27.19-12.88,35.44,3.94,14.47,36.24,20.39,60.82,17.78,13-1.39,14.21-4.15,25.26-6.08,46.38-8.15,67.74,33,98.08,22.45,21.56-7.51,21.87-32.49,49.9-37.42,9.78-1.73,20.6-.65,21.52-4.37s-8.22-9.44-15.91-12.47c-16.58-6.56-31.9-2.32-38.67-1.25-30.34,4.79-61.24-26.76-79.77-45.7-52.41-53.53-50.94-128-50.32-143.53-4.16-2.23-19.34-9.7-52.73-.71A56.73,56.73,0,0,0,1702.21,645.62Z" transform="translate(17.13)"/><path class="cls-109" d="M1956.46,835.63c.89-3.63-8.22-9.44-15.91-12.47-16.58-6.56-31.9-2.32-38.67-1.25-30.34,4.79-61.24-26.76-79.77-45.7-26.32-26.88-39-59.05-45.12-86.38-4.13,30.46-15.08,61.34-2.4,88.28,9.56,24.86,45.9,22.95,59.29,51.64,5.74,11.47,21,9.56,34.43,11.47,9.56,0,13.38,15.31,26.77,13.39,5.74-1.91,9.56-11.47,13.39-11.47,4.86,0,10.11.06,15.51.34a40.68,40.68,0,0,1,11-3.48C1944.72,838.27,1955.54,839.35,1956.46,835.63Z" transform="translate(17.13)"/><path class="cls-110" d="M1798.65,840.3c-3.51,2.8-11.43,8.35-21.05,8.5a22.39,22.39,0,0,1-7.89-1.15,24.9,24.9,0,0,1-10.35-7,173.6,173.6,0,0,1,22.61-9.57l7.33-1.94Z" transform="translate(17.13)"/><path class="cls-111" d="M1908.6,781.87l-174.34,70.2a8.85,8.85,0,0,1-11.52-4.9l-39.45-99.07a8.85,8.85,0,0,1,4.91-11.51l174.34-70.2a8.85,8.85,0,0,1,11.52,4.9l39.45,99.06A8.86,8.86,0,0,1,1908.6,781.87Z" transform="translate(17.13)"/><path class="cls-112" d="M1911.87,782.9l-174.35,70.2a8.84,8.84,0,0,1-11.51-4.9l-39.45-99.06a8.85,8.85,0,0,1,4.9-11.52l174.35-70.2a8.86,8.86,0,0,1,11.52,4.9l39.44,99.07A8.84,8.84,0,0,1,1911.87,782.9Z" transform="translate(17.13)"/><path class="cls-16" d="M1762.73,759.74c9.46.17,18,8.08,19.13,17.63a16.38,16.38,0,0,1-.83,7.46l21,9.73a37.56,37.56,0,0,0,1.79-16.87c-2.51-21.83-22-40-43.71-40.44H1760l2.6,22.49Z" transform="translate(17.13)"/><path class="cls-113" d="M1781,784.83a14.64,14.64,0,0,1-14.29,9.67c-9.48-.11-18.12-8-19.23-17.63s5.66-17.2,15.06-17.13l-2.6-22.49c-21.73-.37-37.45,17.21-34.89,39.3s22.48,40.26,44.26,40.42c15.64.12,28-9.07,32.72-22.41Z" transform="translate(17.13)"/><path class="cls-114" d="M1887.42,727.14l-72.71,29.77a.68.68,0,0,1-.88-.38l-2.8-6.93a.67.67,0,0,1,.37-.88l72.76-29.67a.66.66,0,0,1,.85.38l2.76,6.84A.67.67,0,0,1,1887.42,727.14Z" transform="translate(17.13)"/><path class="cls-114" d="M1881.29,712.42l-72.71,29.77a.67.67,0,0,1-.88-.38l-2.8-6.93a.67.67,0,0,1,.37-.88L1878,704.34a.66.66,0,0,1,.86.37l2.76,6.84A.67.67,0,0,1,1881.29,712.42Z" transform="translate(17.13)"/><path class="cls-114" d="M1899.38,757.49l-72.71,29.78a.67.67,0,0,1-.88-.38L1823,780a.67.67,0,0,1,.37-.88l72.75-29.67a.66.66,0,0,1,.86.38l2.76,6.83A.66.66,0,0,1,1899.38,757.49Z" transform="translate(17.13)"/><path class="cls-114" d="M1893.25,742.78l-72.71,29.77a.67.67,0,0,1-.88-.38l-2.8-6.93a.67.67,0,0,1,.36-.88L1890,734.69a.66.66,0,0,1,.86.38l2.76,6.84A.67.67,0,0,1,1893.25,742.78Z" transform="translate(17.13)"/><path class="cls-115" d="M1750.68,648.62c17.77-17.24,73,2.32,93.86,47.45,17.91,38.83,23.15,68.6,5,106.78a94.42,94.42,0,0,1-46.82,45.65c-1.45-2.54-6.77-7-13.77-17.59,17.63-6.61,34.22-38.44,36.09-58,2.48-26-11.26-51-24.08-60.14-12-8.58-48.42,1.22-59.87-6.85C1725.92,695.19,1737,661.88,1750.68,648.62Z" transform="translate(17.13)"/><path class="cls-116" d="M1720.64,578.16c-3.08,14.61-4.34,32.23,5.48,41.32,8.65,8,21.05,4.93,21.93,9.12,1.73,8.29-45.29,26.8-48.83,20.91-1.74-2.9,13-9.57,12.72-20.21-.12-4.42-2.13-7.49-13.53-23.2l-3.81,1.34Z" transform="translate(17.13)"/><path class="cls-117" d="M1870.17,593.57c-7.48-22.79-30.51-34.33-34.86-36.3-27.07-12.25-37.55,4.28-69.47-7.24-1.39-.5-2.71-1-4-1.55a80.73,80.73,0,0,0,25.45,4.09l2,0h.59a90.36,90.36,0,0,0,12.8-1.52c3-.5,5.85-1,8-1.14a39,39,0,0,1,13.39,1l1.91.41a.46.46,0,0,0,.55-.36.45.45,0,0,0-.36-.55l-1.9-.41a39.73,39.73,0,0,0-13.67-1c-2.21.18-5.07.65-8.1,1.14-4.56.75-9.74,1.58-13.21,1.5l-2,0c-7.15-.14-15.93-.32-33.29-6.83-2.11-1.1-4.1-2.22-6.07-3.33l2,.77c5.1,2,10.37,4,15.61,4.89a38,38,0,0,0,6,.47l1.58,0a.56.56,0,0,0,.54-.59.55.55,0,0,0-.59-.55,37,37,0,0,1-7.31-.42c-5.12-.83-10.34-2.87-15.38-4.83-2-.78-4.05-1.58-6-2.28-.85-.3-1.67-.58-2.5-.84a80.4,80.4,0,0,0-26.09-8.87c-10.59-1.81-30.3-1.54-35.31,3.91-5.53,6,18.33,12.37,26.86,52.82,2.17,10.3,7.78,35.1,30.73,55.58,5.3,4.73,48.64,42.34,91.7,24.17C1858.37,653.58,1878.89,620.18,1870.17,593.57Z" transform="translate(17.13)"/><g class="cls-48"><path class="cls-118" d="M1870.17,593.57c-7.48-22.79-30.51-34.33-34.86-36.3a56.89,56.89,0,0,0-8.19-3,36.85,36.85,0,0,1,8,8.17c2.17,3.07,7.45,10.53,6.24,19.34-1.14,8.2-6.9,10.4-12.48,19.34-9.35,15-2.64,24-8.73,32.43-10.76,14.88-47.75,9-71.11-1.25a107.14,107.14,0,0,1-35.61-25.73A94.16,94.16,0,0,0,1738,641.5c5.3,4.73,48.64,42.34,91.7,24.17C1858.37,653.58,1878.89,620.18,1870.17,593.57Z" transform="translate(17.13)"/></g><path class="cls-119" d="M1714.23,593.58s.82,17.22-16,19.79c-20.69,3.17-31-51.13-26.48-55,5.3-4.49,11.72,3.63,24.85-1.47,5.53-2.15,9.39-10.24,13.47-2.73,4.63,8.53,4.2,24.92,4.2,24.92s4.32-4.79,5.79,0C1722,585.33,1717.82,590,1714.23,593.58Z" transform="translate(17.13)"/><path class="cls-120" d="M1672.72,539.05c-5.58,7.67-7.29,21.21-1.77,27.07,7.93,8.42,25.83-4.23,35.44,6.08,4.21,4.52,5,11.54,6.83,11.16,1.47-.31,1.64-5.28,1.91-9.39,1.49-22.66,6.6-25.94,4-32C1713.85,529.71,1684.18,523.3,1672.72,539.05Z" transform="translate(17.13)"/><path class="cls-59" d="M1618.71,1103.25c1.47-2,11.14-1,16,1.67,8.19,4.5,13,12.53,15.06,13.63,4.78,2.51,9.31.36,9.72.47,0,0,3.19,6.46-2.55,9.57S1609.63,1115.92,1618.71,1103.25Z" transform="translate(17.13)"/></g></g></g></svg>