<svg xmlns="http://www.w3.org/2000/svg" width="89.557" height="101.466" viewBox="0 0 89.557 101.466">
  <g id="abffebd3-2ac6-4c6b-a0d4-e62621854ed7_1_" opacity="0.6">
    <path id="路径_114" data-name="路径 114" d="M198.587,189.3s-14.31-25.342-35.854-32.628a44.132,44.132,0,0,1-22.324-16.7A77.625,77.625,0,0,1,133.8,128.1" transform="translate(-118.384 -88.322)" fill="none" stroke="#535461" stroke-miterlimit="10" stroke-width="2"/>
    <path id="路径_115" data-name="路径 115" d="M106.113,109.208c2.446,2.394,13.894,4.84,13.894,4.84s-2.81-11.344-5.256-13.738a6.182,6.182,0,1,0-8.742,8.742c0,.052.052.1.1.156Z" transform="translate(-104.175 -74.113)" fill="#38d39f"/>
    <path id="路径_116" data-name="路径 116" d="M115.71,147.264c3.33.676,14.31-3.486,14.31-3.486s-8.534-8.014-11.865-8.69a6.2,6.2,0,0,0-7.285,4.892,6.1,6.1,0,0,0,4.84,7.285Z" transform="translate(-107.319 -91.614)" fill="#38d39f"/>
    <path id="路径_117" data-name="路径 117" d="M157.906,190.261c3.226-1.093,10.564-10.2,10.564-10.2s-11.4-2.6-14.623-1.509a6.2,6.2,0,1,0,4.059,11.708Z" transform="translate(-125.994 -112.392)" fill="#38d39f"/>
    <path id="路径_118" data-name="路径 118" d="M200.4,214.59c3.382-.572,12.177-8.274,12.177-8.274s-10.772-4.475-14.154-3.955A6.194,6.194,0,0,0,200.4,214.59Z" transform="translate(-146.888 -123.919)" fill="#38d39f"/>
    <path id="路径_119" data-name="路径 119" d="M154.685,129.192c0,3.435-6.192,13.322-6.192,13.322s-6.193-9.887-6.193-13.322a6.193,6.193,0,0,1,12.385,0Z" transform="translate(-122.461 -85.876)" fill="#38d39f"/>
    <path id="路径_120" data-name="路径 120" d="M203.208,156.884c-1.041,3.278-9.887,10.876-9.887,10.876s-2.966-11.344-1.925-14.571a6.188,6.188,0,0,1,11.813,3.695Z" transform="translate(-145.902 -98.268)" fill="#38d39f"/>
    <path id="路径_121" data-name="路径 121" d="M245.851,192.819c-.468,3.382-7.91,12.385-7.91,12.385s-4.839-10.668-4.371-14.05a6.2,6.2,0,1,1,12.281,1.665Z" transform="translate(-166.221 -115.99)" fill="#38d39f"/>
    <path id="路径_122" data-name="路径 122" d="M106.113,109.208c2.446,2.394,13.894,4.84,13.894,4.84s-2.81-11.344-5.256-13.738a6.182,6.182,0,1,0-8.742,8.742c0,.052.052.1.1.156Z" transform="translate(-104.175 -74.113)" opacity="0.25"/>
    <path id="路径_123" data-name="路径 123" d="M115.71,147.264c3.33.676,14.31-3.486,14.31-3.486s-8.534-8.014-11.865-8.69a6.2,6.2,0,0,0-7.285,4.892,6.1,6.1,0,0,0,4.84,7.285Z" transform="translate(-107.319 -91.614)" opacity="0.25"/>
    <path id="路径_124" data-name="路径 124" d="M157.906,190.261c3.226-1.093,10.564-10.2,10.564-10.2s-11.4-2.6-14.623-1.509a6.2,6.2,0,1,0,4.059,11.708Z" transform="translate(-125.994 -112.392)" opacity="0.25"/>
    <path id="路径_125" data-name="路径 125" d="M200.4,214.59c3.382-.572,12.177-8.274,12.177-8.274s-10.772-4.475-14.154-3.955A6.194,6.194,0,0,0,200.4,214.59Z" transform="translate(-146.888 -123.919)" opacity="0.25"/>
    <path id="路径_126" data-name="路径 126" d="M154.685,129.192c0,3.435-6.192,13.322-6.192,13.322s-6.193-9.887-6.193-13.322a6.193,6.193,0,0,1,12.385,0Z" transform="translate(-122.461 -85.876)" opacity="0.25"/>
    <path id="路径_127" data-name="路径 127" d="M203.208,156.884c-1.041,3.278-9.887,10.876-9.887,10.876s-2.966-11.344-1.925-14.571a6.188,6.188,0,0,1,11.813,3.695Z" transform="translate(-145.902 -98.268)" opacity="0.25"/>
    <path id="路径_128" data-name="路径 128" d="M245.851,192.819c-.468,3.382-7.91,12.385-7.91,12.385s-4.839-10.668-4.371-14.05a6.2,6.2,0,1,1,12.281,1.665Z" transform="translate(-166.221 -115.99)" opacity="0.25"/>
    <path id="路径_129" data-name="路径 129" d="M225.049,169.068s-2.81-28.985-19.566-44.388a43.705,43.705,0,0,1-13.634-24.3A73.4,73.4,0,0,1,190.6,86.9" transform="translate(-145.626 -68.561)" fill="none" stroke="#535461" stroke-miterlimit="10" stroke-width="2"/>
    <path id="路径_130" data-name="路径 130" d="M170.077,60.162c1.3,3.174,10.72,10.043,10.72,10.043s2.029-11.5.781-14.675a6.2,6.2,0,1,0-11.5,4.631Z" transform="translate(-135.563 -51.659)" fill="#38d39f"/>
    <path id="路径_131" data-name="路径 131" d="M163.464,98.8c2.81,1.977,14.466,2.6,14.466,2.6s-4.527-10.772-7.337-12.749A6.2,6.2,0,0,0,163.464,98.8Z" transform="translate(-131.344 -68.859)" fill="#38d39f"/>
    <path id="路径_132" data-name="路径 132" d="M184.655,155.109c3.382.26,13.79-5.048,13.79-5.048s-9.367-6.973-12.749-7.285a6.188,6.188,0,1,0-1.041,12.333Z" transform="translate(-140.046 -95.348)" fill="#38d39f"/>
    <path id="路径_133" data-name="路径 133" d="M213.361,194.551c3.33.833,14.466-2.654,14.466-2.654s-8.066-8.482-11.344-9.367a6.188,6.188,0,1,0-3.695,11.813,3.951,3.951,0,0,1,.572.208Z" transform="translate(-154.182 -114.287)" fill="#38d39f"/>
    <path id="路径_134" data-name="路径 134" d="M206.325,97.948c-1.405,3.122-11.084,9.679-11.084,9.679s-1.665-11.552-.26-14.727a6.208,6.208,0,1,1,11.344,5.048Z" transform="translate(-147.457 -69.67)" fill="#38d39f"/>
    <path id="路径_135" data-name="路径 135" d="M237.078,142.939c-2.238,2.55-13.478,5.932-13.478,5.932s1.873-11.552,4.163-14.1a6.195,6.195,0,1,1,9.315,8.17Z" transform="translate(-161.454 -90.515)" fill="#38d39f"/>
    <path id="路径_136" data-name="路径 136" d="M263.228,193.075c-1.769,2.914-12.229,8.118-12.229,8.118s-.1-11.708,1.717-14.623a6.181,6.181,0,1,1,10.512,6.5Z" transform="translate(-174.595 -114.945)" fill="#38d39f"/>
  </g>
</svg>
